<svg id="Layer_1" data-name="Layer 1" xmlns="http://www.w3.org/2000/svg" viewBox="0 0 1456 1080"><defs><style>.cls-1{fill:salmon;}.cls-2,.cls-3,.cls-4,.cls-5{fill:none;stroke-miterlimit:10;}.cls-2,.cls-3{stroke:salmon;stroke-width:36.78px;}.cls-2,.cls-5{stroke-linecap:round;}.cls-4,.cls-5{stroke:#fff;stroke-width:49.41px;}</style></defs><title>ContactUs</title><path class="cls-1" d="M1029.86,234.83h-1.47A392,392,0,0,0,742.87,111.89c-168.94,0-312.9,106.52-368.52,256C248.67,398.31,171.41,524.82,201.8,650.5S358.69,853.44,484.37,823.06q10-2.43,19.86-5.74a393.24,393.24,0,0,0,443.4,23.21,308.12,308.12,0,0,0,82.26,11.12c170.41,0,308.41-138.09,308.41-308.41S1200.2,234.83,1029.86,234.83Z"/><path class="cls-2" d="M310.65,562.52c-39.5-10.64-83.74-2-116.29,22.82-35.5,27-55.27,69.8-68.84,112.29A595.65,595.65,0,0,0,97.63,896.54"/><path class="cls-3" d="M1210.14,556.36C1278.62,518,1329.38,449.3,1346,372.58s-1.18-160.25-47.64-223.53"/><polyline class="cls-3" points="590.21 708.05 580.4 1025.57 501.94 1025.57"/><polyline class="cls-3" points="905.28 712.95 895.47 1030.47 817.01 1030.47"/><path class="cls-2" d="M1305,171.23a343.24,343.24,0,0,1-100.79-4.67c-5-1-10.46-2.37-13.45-6.51"/><path class="cls-2" d="M1312.18,170.09a626,626,0,0,1-39.52-98.93"/><path class="cls-2" d="M1316.84,166.23c17-12.7,26.94-33.15,31.11-54s3.19-42.3,2.19-63.52"/><ellipse class="cls-4" cx="517.27" cy="484.01" rx="175.92" ry="74.48"/><ellipse class="cls-4" cx="992.93" cy="484.01" rx="175.92" ry="74.48"/><path class="cls-5" d="M443.1,662.69s149.56,101.75,339.58,90.72S1103.88,648,1103.88,648"/></svg>