<?xml version="1.0" encoding="utf-8"?>
<!-- Generator: Adobe Illustrator 22.0.1, SVG Export Plug-In . SVG Version: 6.00 Build 0)  -->
<svg version="1.1" id="Layer_4" xmlns="http://www.w3.org/2000/svg" xmlns:xlink="http://www.w3.org/1999/xlink" x="0px" y="0px"
	 viewBox="0 0 960 960" style="enable-background:new 0 0 960 960;" xml:space="preserve">
<style type="text/css">
	.st0{fill:none;}
	.st1{fill:none;stroke:#000000;stroke-width:3.5;stroke-linecap:round;stroke-dasharray:0,6.5;}
	.st2{fill:none;stroke:#000000;stroke-width:3.25;stroke-linecap:round;stroke-dasharray:0,6.5;}
	.st3{fill:none;stroke:#000000;stroke-width:3;stroke-linecap:round;stroke-dasharray:0,6.5;}
	.st4{fill:none;stroke:#000000;stroke-width:2.75;stroke-linecap:round;stroke-dasharray:0,6.5;}
	.st5{fill:none;stroke:#000000;stroke-width:2.5;stroke-linecap:round;stroke-dasharray:0,6.5;}
	.st6{fill:none;stroke:#000000;stroke-width:2.25;stroke-linecap:round;stroke-dasharray:0,6.5;}
	.st7{fill:none;stroke:#000000;stroke-width:2;stroke-linecap:round;stroke-dasharray:0,6.5;}
	.st8{fill:none;stroke:#000000;stroke-width:1.75;stroke-linecap:round;stroke-dasharray:0,6.5;}
	.st9{fill:none;stroke:#000000;stroke-width:1.499;stroke-linecap:round;stroke-dasharray:0,6.5;}
	.st10{fill:none;stroke:#000000;stroke-width:1.25;stroke-linecap:round;stroke-dasharray:0,6.5;}
	.st11{fill:#EF5182;stroke:#181818;stroke-miterlimit:10;}
	.st12{fill:#FFD167;stroke:#181818;stroke-miterlimit:10;}
	.st13{fill:#F47F72;stroke:#181818;stroke-miterlimit:10;}
	.st14{fill:#EAEAEA;stroke:#191919;stroke-width:1.4275;stroke-miterlimit:10;}
	.st15{fill:#FFD167;stroke:#181818;stroke-width:1.4275;stroke-miterlimit:10;}
	.st16{stroke:#191919;stroke-width:1.4275;stroke-miterlimit:10;}
	.st17{fill:#F47F71;}
	.st18{fill:none;stroke:#191919;stroke-width:1.4275;stroke-miterlimit:10;}
	.st19{opacity:0.14;fill:url(#Undulating_Fine_Dots);}
	.st20{opacity:0.14;}
	.st21{fill:url(#Undulating_Fine_Dots);}
	.st22{fill:#F47F72;}
	.st23{opacity:0.1;fill:url(#Undulating_Fine_Dots);}
	.st24{opacity:0.1;}
	.st25{fill:#EAEAEA;stroke:#191919;stroke-miterlimit:10;}
	.st26{stroke:#191919;stroke-miterlimit:10;}
	.st27{fill:none;stroke:#191919;stroke-miterlimit:10;}
</style>
<pattern  x="-1647" y="-1637" width="83" height="65" patternUnits="userSpaceOnUse" id="Undulating_Fine_Dots" viewBox="1.8 -132.3 83 65" style="overflow:visible;">
	<g>
		<rect x="1.8" y="-132.3" class="st0" width="83" height="65"/>
		<g>
			<line class="st1" x1="84.8" y1="-67.3" x2="84.8" y2="-1.8"/>
		</g>
		<g>
			<line class="st1" x1="1.8" y1="-67.3" x2="1.8" y2="-1.8"/>
			<line class="st2" x1="6.4" y1="-70.5" x2="6.4" y2="-1.8"/>
			<line class="st3" x1="11" y1="-67.3" x2="11" y2="-1.8"/>
			<line class="st4" x1="15.6" y1="-70.5" x2="15.6" y2="-1.8"/>
			<line class="st5" x1="20.2" y1="-67.3" x2="20.2" y2="-1.8"/>
			<line class="st6" x1="24.8" y1="-70.5" x2="24.8" y2="-1.8"/>
			<line class="st7" x1="29.4" y1="-67.3" x2="29.4" y2="-1.8"/>
			<line class="st8" x1="34" y1="-70.5" x2="34" y2="-1.8"/>
			<line class="st9" x1="38.6" y1="-67.3" x2="38.6" y2="-1.8"/>
			<line class="st10" x1="43.3" y1="-70.5" x2="43.3" y2="-1.8"/>
			<line class="st1" x1="84.8" y1="-67.3" x2="84.8" y2="-1.8"/>
			<line class="st2" x1="80.1" y1="-70.5" x2="80.1" y2="-1.8"/>
			<line class="st3" x1="75.5" y1="-67.3" x2="75.5" y2="-1.8"/>
			<line class="st4" x1="70.9" y1="-70.5" x2="70.9" y2="-1.8"/>
			<line class="st5" x1="66.3" y1="-67.3" x2="66.3" y2="-1.8"/>
			<line class="st6" x1="61.7" y1="-70.5" x2="61.7" y2="-1.8"/>
			<line class="st7" x1="57.1" y1="-67.3" x2="57.1" y2="-1.8"/>
			<line class="st8" x1="52.5" y1="-70.5" x2="52.5" y2="-1.8"/>
			<line class="st9" x1="47.9" y1="-67.3" x2="47.9" y2="-1.8"/>
		</g>
		<g>
			<line class="st1" x1="1.8" y1="-67.3" x2="1.8" y2="-1.8"/>
		</g>
		<g>
			<line class="st1" x1="84.8" y1="-132.3" x2="84.8" y2="-66.8"/>
		</g>
		<g>
			<line class="st1" x1="1.8" y1="-132.3" x2="1.8" y2="-66.8"/>
			<line class="st2" x1="6.4" y1="-135.5" x2="6.4" y2="-66.8"/>
			<line class="st3" x1="11" y1="-132.3" x2="11" y2="-66.8"/>
			<line class="st4" x1="15.6" y1="-135.5" x2="15.6" y2="-66.8"/>
			<line class="st5" x1="20.2" y1="-132.3" x2="20.2" y2="-66.8"/>
			<line class="st6" x1="24.8" y1="-135.5" x2="24.8" y2="-66.8"/>
			<line class="st7" x1="29.4" y1="-132.3" x2="29.4" y2="-66.8"/>
			<line class="st8" x1="34" y1="-135.5" x2="34" y2="-66.8"/>
			<line class="st9" x1="38.6" y1="-132.3" x2="38.6" y2="-66.8"/>
			<line class="st10" x1="43.3" y1="-135.5" x2="43.3" y2="-66.8"/>
			<line class="st1" x1="84.8" y1="-132.3" x2="84.8" y2="-66.8"/>
			<line class="st2" x1="80.1" y1="-135.5" x2="80.1" y2="-66.8"/>
			<line class="st3" x1="75.5" y1="-132.3" x2="75.5" y2="-66.8"/>
			<line class="st4" x1="70.9" y1="-135.5" x2="70.9" y2="-66.8"/>
			<line class="st5" x1="66.3" y1="-132.3" x2="66.3" y2="-66.8"/>
			<line class="st6" x1="61.7" y1="-135.5" x2="61.7" y2="-66.8"/>
			<line class="st7" x1="57.1" y1="-132.3" x2="57.1" y2="-66.8"/>
			<line class="st8" x1="52.5" y1="-135.5" x2="52.5" y2="-66.8"/>
			<line class="st9" x1="47.9" y1="-132.3" x2="47.9" y2="-66.8"/>
		</g>
		<g>
			<line class="st1" x1="1.8" y1="-132.3" x2="1.8" y2="-66.8"/>
		</g>
		<g>
			<line class="st1" x1="84.8" y1="-197.3" x2="84.8" y2="-131.8"/>
		</g>
		<g>
			<line class="st1" x1="1.8" y1="-197.3" x2="1.8" y2="-131.8"/>
			<line class="st2" x1="6.4" y1="-200.5" x2="6.4" y2="-131.8"/>
			<line class="st3" x1="11" y1="-197.3" x2="11" y2="-131.8"/>
			<line class="st4" x1="15.6" y1="-200.5" x2="15.6" y2="-131.8"/>
			<line class="st5" x1="20.2" y1="-197.3" x2="20.2" y2="-131.8"/>
			<line class="st6" x1="24.8" y1="-200.5" x2="24.8" y2="-131.8"/>
			<line class="st7" x1="29.4" y1="-197.3" x2="29.4" y2="-131.8"/>
			<line class="st8" x1="34" y1="-200.5" x2="34" y2="-131.8"/>
			<line class="st9" x1="38.6" y1="-197.3" x2="38.6" y2="-131.8"/>
			<line class="st10" x1="43.3" y1="-200.5" x2="43.3" y2="-131.8"/>
			<line class="st1" x1="84.8" y1="-197.3" x2="84.8" y2="-131.8"/>
			<line class="st2" x1="80.1" y1="-200.5" x2="80.1" y2="-131.8"/>
			<line class="st3" x1="75.5" y1="-197.3" x2="75.5" y2="-131.8"/>
			<line class="st4" x1="70.9" y1="-200.5" x2="70.9" y2="-131.8"/>
			<line class="st5" x1="66.3" y1="-197.3" x2="66.3" y2="-131.8"/>
			<line class="st6" x1="61.7" y1="-200.5" x2="61.7" y2="-131.8"/>
			<line class="st7" x1="57.1" y1="-197.3" x2="57.1" y2="-131.8"/>
			<line class="st8" x1="52.5" y1="-200.5" x2="52.5" y2="-131.8"/>
			<line class="st9" x1="47.9" y1="-197.3" x2="47.9" y2="-131.8"/>
		</g>
		<g>
			<line class="st1" x1="1.8" y1="-197.3" x2="1.8" y2="-131.8"/>
		</g>
	</g>
</pattern>
<g>
	<polygon class="st14" points="129,360.8 128.9,395.7 107.9,383.5 108,348.6 	"/>
</g>
<g>
	<path class="st14" d="M161.6,361.4l-0.1,34.9c0-1.8-1.2-3.3-3.5-4.7c-3.4-2-7.7-2.6-12.8-1.9c-5.1,0.7-10.6,2.7-16.3,6l0.1-34.9
		c5.7-3.3,11.1-5.3,16.3-6c5.1-0.7,9.4,0,12.8,1.9C160.5,358.1,161.6,359.6,161.6,361.4z"/>
</g>
<path class="st15" d="M175.8,382.1c-6,3.5-13.6,6.2-22.8,8.1c-9.2,1.9-22.1,3.3-38.9,4.1l-33.5,3.4l-0.1,34.9l33.5-3.4
	c16.8-0.8,29.8-2.2,38.9-4.1c9.1-1.9,16.8-4.6,22.8-8.1c9.7-5.7,14.6-11.6,14.5-17.7l0.1-34.9C190.4,370.6,185.5,376.5,175.8,382.1z
	"/>
<g>
	<polygon class="st14" points="99.9,429.1 99.8,464 36.2,427.2 36.3,392.3 	"/>
</g>
<g>
	<polygon class="st15" points="117.2,419 117.1,453.9 99.8,464 99.9,429.1 	"/>
</g>
<g>
	<path class="st16" d="M265.4,407.5l-0.1,34.9c0,1.4-0.2,2.8-0.7,4.2l0.1-34.9C265.2,410.3,265.4,408.9,265.4,407.5z"/>
</g>
<path class="st14" d="M235.9,401.6c-6.7-3.9-17.9-1.4-33.6,7.5l-26.7,15.5l-0.1,34.9l26.7-15.5c15.7-8.9,26.9-11.4,33.6-7.5
	c2.1,1.2,3.1,2.6,3.1,4.3l0.1-34.9C239,404.2,238,402.8,235.9,401.6z"/>
<g>
	<path class="st15" d="M157.1,476.1l0.1-34.9c0-1.2,0.5-2.5,1.6-3.9c2.5-3.4,8.1-7.7,16.7-12.7l-0.1,34.9c-8.6,5-14.2,9.3-16.7,12.7
		C157.7,473.7,157.1,475,157.1,476.1z"/>
</g>
<path class="st15" d="M239.8,435.8l-19.5,11.3l-0.1,34.9l19.5-11.3c14.3-8.4,22.6-16.4,25-24.1l0.1-34.9
	C262.4,419.3,254.1,427.4,239.8,435.8z"/>
<g>
	<path class="st14" d="M130.8,474.7l0.1-34.9c0,5.9,4,11.2,12.2,15.9c10,5.8,21.7,8,35,6.5c13.3-1.4,27.3-6.5,42.2-15.1l-0.1,34.9
		c-14.8,8.6-28.9,13.7-42.2,15.1c-13.3,1.4-24.9-0.7-35-6.5C134.9,485.9,130.8,480.6,130.8,474.7z"/>
</g>
<g>
	<polygon class="st14" points="282.7,449.5 282.6,484.4 261.6,472.2 261.7,437.3 	"/>
</g>
<g>
	<path class="st14" d="M315.3,450.1l-0.1,34.9c0-1.8-1.2-3.3-3.5-4.7c-3.4-2-7.7-2.6-12.8-1.9c-5.1,0.7-10.6,2.7-16.3,6l0.1-34.9
		c5.7-3.3,11.1-5.3,16.3-6c5.1-0.7,9.4,0,12.8,1.9C314.2,446.8,315.3,448.4,315.3,450.1z"/>
</g>
<path class="st15" d="M329.5,470.9c-6,3.5-13.6,6.2-22.8,8.1c-9.2,1.9-22.1,3.3-38.9,4.1l-33.5,3.4l-0.1,34.9l33.5-3.4
	c16.8-0.8,29.8-2.2,38.9-4.1c9.1-1.9,16.8-4.6,22.8-8.1c9.7-5.7,14.6-11.6,14.5-17.7l0.1-34.9C344.1,459.3,339.2,465.2,329.5,470.9z
	"/>
<g>
	<polygon class="st14" points="253.6,517.8 253.5,552.7 189.9,515.9 190,481 	"/>
</g>
<g>
	<polygon class="st15" points="270.9,507.7 270.8,542.6 253.5,552.7 253.6,517.8 	"/>
</g>
<g>
	<path class="st16" d="M419.1,496.2l-0.1,34.9c0,1.4-0.2,2.8-0.7,4.2l0.1-34.9C418.9,499,419.1,497.6,419.1,496.2z"/>
</g>
<path class="st14" d="M389.6,490.3c-6.7-3.9-17.9-1.4-33.6,7.5l-26.7,15.5l-0.1,34.9l26.7-15.5c15.7-8.9,26.9-11.4,33.6-7.5
	c2.1,1.2,3.1,2.6,3.1,4.3l0.1-34.9C392.7,493,391.6,491.5,389.6,490.3z"/>
<g>
	<path class="st15" d="M310.8,564.9l0.1-34.9c0-1.2,0.5-2.5,1.6-3.9c2.5-3.4,8.1-7.7,16.7-12.7l-0.1,34.9c-8.6,5-14.2,9.3-16.7,12.7
		C311.3,562.4,310.8,563.7,310.8,564.9z"/>
</g>
<path class="st15" d="M393.4,524.5l-19.5,11.3l-0.1,34.9l19.5-11.3c14.3-8.4,22.6-16.4,25-24.1l0.1-34.9
	C416.1,508.1,407.7,516.1,393.4,524.5z"/>
<g>
	<path class="st14" d="M284.5,563.4l0.1-34.9c0,5.9,4,11.2,12.2,15.9c10,5.8,21.7,8,35,6.5c13.3-1.4,27.3-6.5,42.2-15.1l-0.1,34.9
		c-14.8,8.6-28.9,13.7-42.2,15.1c-13.3,1.4-24.9-0.7-35-6.5C288.5,574.6,284.5,569.3,284.5,563.4z"/>
</g>
<path class="st14" d="M323.5,263.6c-5.8-3.4-12-4.6-18.5-3.6c-6.5,1-14.4,4.1-23.9,9.4l-20.3,11.8l-0.1,34.9l20.3-11.8
	c9.4-5.3,17.4-8.4,23.9-9.4s12.6,0.3,18.5,3.6c5.1,2.9,7.7,5.7,7.6,8.4l0.1-34.9C331.1,269.3,328.5,266.5,323.5,263.6z"/>
<g>
	<polygon class="st14" points="340.7,296.7 340.6,331.6 318.7,319 318.8,284 	"/>
</g>
<g>
	<path class="st15" d="M358.5,273.6l-0.1,34.9c0,0.2,0,0.5,0,0.7c-0.4,7.3-6.3,14.8-17.7,22.4l0.1-34.9c11.4-7.6,17.3-15,17.7-22.4
		C358.5,274.1,358.5,273.8,358.5,273.6z"/>
</g>
<g>
	<path class="st15" d="M241.9,333.2l0.1-34.9c0-0.8,0.2-1.5,0.5-2.3c1.6-3.7,7.7-8.6,18.4-14.8l-0.1,34.9
		c-10.7,6.2-16.8,11.1-18.4,14.8C242.1,331.7,241.9,332.4,241.9,333.2z"/>
</g>
<g>
	<path class="st14" d="M214.5,331.4l0.1-34.9c0,7.4,5.4,14.2,16.3,20.5c11.6,6.7,23.8,10.1,36.4,10.1c12.7,0,25.4-3.4,38.2-10.2
		l-0.1,34.9c-12.8,6.8-25.5,10.2-38.2,10.2c-12.7,0-24.8-3.4-36.4-10.1C219.9,345.6,214.4,338.8,214.5,331.4z"/>
</g>
<g>
	<polygon class="st15" points="412.3,295.7 412.2,330.6 322.9,382.5 323,347.6 	"/>
</g>
<g>
	<polygon class="st15" points="361.2,369.7 361.1,404.6 343.2,415.1 343.3,380.2 	"/>
</g>
<g>
	<polygon class="st14" points="343.3,380.2 343.2,415.1 283.1,380.4 283.2,345.5 	"/>
</g>
<polygon class="st15" points="472.2,364 472.1,398.9 423.7,415.3 423.8,380.4 "/>
<polygon class="st15" points="401,388.1 400.9,423 373.2,432.4 373.3,397.5 "/>
<polygon class="st14" points="373.3,397.5 373.2,432.4 350.1,419.1 350.2,384.2 "/>
<polygon class="st14" points="430.8,405.3 430.7,440.2 400.9,423 401,388.1 "/>
<polygon class="st14" points="437.9,434.8 437.8,469.7 414.5,456.3 414.6,421.4 "/>
<polygon class="st15" points="511.2,352.9 511.1,387.8 437.8,469.7 437.9,434.8 "/>
<g>
	<path class="st15" d="M577.8,413.8l-0.1,34.9c0-2.4-1.8-4.7-5.4-6.8c-3.8-2.2-7.9-3.3-12.3-3.2c-4.4,0.1-8.4,1.2-12.2,3.4
		c-3,1.7-4.4,3.9-4.4,6.7l0.1-34.9c0-2.8,1.5-5,4.4-6.7c3.8-2.2,7.9-3.3,12.2-3.4c4.4-0.1,8.4,1,12.3,3.2
		C576,409.1,577.8,411.4,577.8,413.8z"/>
</g>
<g>
	<polygon class="st14" points="591.2,435.8 591.1,470.7 569.4,458.1 569.5,423.2 	"/>
</g>
<g>
	<path class="st15" d="M605.9,416.7l-0.1,34.9c0,2.2-0.6,4.4-1.6,6.6c-2.3,4.6-6.6,8.7-13.1,12.4l0.1-34.9
		c6.4-3.7,10.8-7.9,13.1-12.4C605.4,421.1,605.9,418.9,605.9,416.7z"/>
</g>
<g>
	<path class="st15" d="M490.5,477.2l0.1-34.9c0-0.2,0-0.4,0-0.6c0.4-3,3.7-6.3,9.8-9.9l-0.1,34.9c-6.2,3.6-9.5,6.9-9.8,9.9
		C490.5,476.8,490.5,477,490.5,477.2z"/>
</g>
<path class="st14" d="M523,431.8c-6.1-7.8-9.1-14.5-9.1-20.1l-0.1,34.9c0,5.6,3,12.3,9.1,20.1c3.5,4.8,5.3,8.5,5.3,11.1l0.1-34.9
	C528.3,440.3,526.5,436.6,523,431.8z"/>
<g>
	<path class="st14" d="M557.8,445.2l-0.1,34.9c0,0.6,0,1.2-0.1,1.7c-0.7,6-5.4,11.4-13.9,16.3c-9.3,5.4-19.6,7.9-30.9,7.5
		c-11.2-0.4-22-3.6-32.3-9.5c-7-4-11.9-8.5-14.8-13.5c-1.7-2.9-2.5-5.8-2.5-8.7l0.1-34.9c0,2.9,0.8,5.8,2.5,8.7
		c2.9,5,7.8,9.5,14.8,13.5c10.3,5.9,21,9.1,32.3,9.5c11.2,0.4,21.5-2.1,30.9-7.5c8.5-4.9,13.1-10.4,13.9-16.3
		C557.8,446.3,557.8,445.7,557.8,445.2z"/>
</g>
<g>
	<path class="st15" d="M659.8,461.2l-0.1,34.9c0-2.4-1.8-4.7-5.4-6.8c-3.8-2.2-7.9-3.3-12.2-3.2c-4.4,0.1-8.4,1.2-12.2,3.4
		c-3,1.7-4.4,3.9-4.4,6.7l0.1-34.9c0-2.8,1.5-5,4.4-6.7c3.8-2.2,7.8-3.3,12.2-3.4c4.4-0.1,8.4,1,12.2,3.2
		C658,456.5,659.8,458.8,659.8,461.2z"/>
</g>
<g>
	<polygon class="st14" points="673.3,483.1 673.2,518 651.4,505.5 651.5,470.6 	"/>
</g>
<g>
	<path class="st15" d="M688,464.1l-0.1,34.9c0,2.2-0.6,4.4-1.7,6.6c-2.3,4.6-6.6,8.7-13,12.4l0.1-34.9c6.4-3.7,10.8-7.9,13-12.4
		C687.4,468.5,688,466.3,688,464.1z"/>
</g>
<g>
	<path class="st15" d="M572.6,524.6l0.1-34.9c0-0.2,0-0.4,0-0.6c0.4-3,3.7-6.3,9.8-9.9l-0.1,34.9c-6.2,3.6-9.5,6.9-9.8,9.9
		C572.6,524.2,572.6,524.4,572.6,524.6z"/>
</g>
<path class="st14" d="M605,479.1c-6.1-7.8-9.2-14.5-9.1-20.1l-0.1,34.9c0,5.6,3,12.3,9.1,20.1c3.5,4.8,5.3,8.5,5.3,11.1l0.1-34.9
	C610.3,487.7,608.5,484,605,479.1z"/>
<g>
	<path class="st14" d="M639.8,492.5l-0.1,34.9c0,0.6,0,1.2-0.1,1.7c-0.7,6-5.4,11.4-13.9,16.3c-9.3,5.4-19.6,7.9-30.9,7.5
		c-11.2-0.4-22-3.6-32.3-9.5c-7-4-11.9-8.5-14.8-13.5c-1.7-2.9-2.5-5.8-2.5-8.7l0.1-34.9c0,2.9,0.8,5.8,2.5,8.7
		c2.9,5,7.8,9.5,14.8,13.5c10.3,5.9,21,9.1,32.3,9.5c11.2,0.4,21.5-2.1,30.9-7.5c8.5-4.9,13.1-10.4,13.9-16.3
		C639.8,493.7,639.8,493.1,639.8,492.5z"/>
</g>
<g>
	<path class="st16" d="M809.3,535l-0.1,34.9c0,0.8-0.1,1.5-0.2,2.3l0.1-34.9C809.2,536.5,809.3,535.7,809.3,535z"/>
</g>
<path class="st14" d="M774.8,524.3c-5.8-3.3-12.3-4.5-19.7-3.4c-7.3,1-15.7,4.2-25,9.6L711,541.5l-0.1,34.9l19.1-11.1
	c9.4-5.3,17.7-8.5,25-9.6c7.3-1,13.9,0.1,19.7,3.4c4.4,2.5,6.6,5.3,6.6,8.4l0.1-34.9C781.4,529.7,779.2,526.9,774.8,524.3z"/>
<g>
	<path class="st15" d="M693.9,593.6l0.1-34.9c0-0.9,0.2-1.8,0.5-2.7c1.6-4.2,7.1-9,16.5-14.5l-0.1,34.9
		c-9.4,5.5-14.9,10.3-16.5,14.5C694,591.8,693.9,592.7,693.9,593.6z"/>
</g>
<path class="st15" d="M785.4,563.2l-18.3,10.7l-0.1,34.9l18.3-10.7c14.6-8.6,22.5-17.2,23.7-26l0.1-34.9
	C807.9,546,800,554.7,785.4,563.2z"/>
<g>
	<path class="st14" d="M665.9,591.3l0.1-34.9c0,7.9,5.6,15,16.8,21.5c12.2,7,25.6,10.2,40.5,9.5c14.8-0.7,29.4-5.2,43.8-13.6
		l-0.1,34.9c-14.4,8.4-29,12.9-43.8,13.6c-14.8,0.7-28.3-2.5-40.5-9.5C671.5,606.3,665.9,599.2,665.9,591.3z"/>
</g>
<g>
	<polygon class="st15" points="849.8,569.2 849.7,604.1 822.2,620.1 822.3,585.2 	"/>
</g>
<g>
	<polygon class="st14" points="887.8,591.2 887.7,626.1 849.7,604.1 849.8,569.2 	"/>
</g>
<g>
	<polygon class="st15" points="905.8,580.7 905.7,615.6 887.7,626.1 887.8,591.2 	"/>
</g>
<g>
	<polygon class="st15" points="856.2,604.8 856.1,639.7 838.1,650.1 838.2,615.2 	"/>
</g>
<g>
	<polygon class="st14" points="838.2,615.2 838.1,650.1 804.2,630.6 804.3,595.7 	"/>
</g>
<g>
	<polygon class="st15" points="804.3,595.7 804.2,630.6 760.4,656 760.5,621.1 	"/>
</g>
<g>
	<polygon class="st14" points="760.5,621.1 760.4,656 738.6,643.4 738.7,608.5 	"/>
</g>
<g>
	<g>
		<g>
			<path class="st17" d="M175.8,346.9c9.6,5.6,14.5,11.4,14.5,17.6c0,6.1-4.8,12-14.5,17.7c-6,3.5-13.6,6.2-22.8,8.1
				c-9.2,1.9-22.1,3.3-38.9,4.1l-33.5,3.4l36.7,21.2l-17.3,10.1l-63.6-36.7l14.7-8.6l66.1-4.6c8.8-0.8,16-1.9,21.6-3.1
				c5.6-1.2,10.2-2.9,13.7-4.9c4.8-2.8,7.7-5.4,8.7-7.9c1-2.5,0-4.7-3.1-6.5c-3.4-2-7.7-2.6-12.8-1.9c-5.1,0.7-10.6,2.7-16.3,6
				L108,348.6c6.6-3.8,14-6.5,22.2-8.1c8.2-1.6,16.3-1.8,24.3-0.7C162.4,340.9,169.5,343.3,175.8,346.9z"/>
			<path class="st18" d="M175.8,346.9c9.6,5.6,14.5,11.4,14.5,17.6c0,6.1-4.8,12-14.5,17.7c-6,3.5-13.6,6.2-22.8,8.1
				c-9.2,1.9-22.1,3.3-38.9,4.1l-33.5,3.4l36.7,21.2l-17.3,10.1l-63.6-36.7l14.7-8.6l66.1-4.6c8.8-0.8,16-1.9,21.6-3.1
				c5.6-1.2,10.2-2.9,13.7-4.9c4.8-2.8,7.7-5.4,8.7-7.9c1-2.5,0-4.7-3.1-6.5c-3.4-2-7.7-2.6-12.8-1.9c-5.1,0.7-10.6,2.7-16.3,6
				L108,348.6c6.6-3.8,14-6.5,22.2-8.1c8.2-1.6,16.3-1.8,24.3-0.7C162.4,340.9,169.5,343.3,175.8,346.9z"/>
			<path class="st19" d="M175.8,346.9c9.6,5.6,14.5,11.4,14.5,17.6c0,6.1-4.8,12-14.5,17.7c-6,3.5-13.6,6.2-22.8,8.1
				c-9.2,1.9-22.1,3.3-38.9,4.1l-33.5,3.4l36.7,21.2l-17.3,10.1l-63.6-36.7l14.7-8.6l66.1-4.6c8.8-0.8,16-1.9,21.6-3.1
				c5.6-1.2,10.2-2.9,13.7-4.9c4.8-2.8,7.7-5.4,8.7-7.9c1-2.5,0-4.7-3.1-6.5c-3.4-2-7.7-2.6-12.8-1.9c-5.1,0.7-10.6,2.7-16.3,6
				L108,348.6c6.6-3.8,14-6.5,22.2-8.1c8.2-1.6,16.3-1.8,24.3-0.7C162.4,340.9,169.5,343.3,175.8,346.9z"/>
		</g>
	</g>
</g>
<g>
	<g>
		<g>
			<path class="st17" d="M264.8,411.7c-2.4,7.6-10.7,15.6-25,24.1l-19.5,11.3c-14.8,8.6-28.9,13.7-42.2,15.1
				c-13.3,1.4-24.9-0.7-35-6.5c-9.9-5.7-13.8-12.4-11.6-19.9c2.2-7.6,10.4-15.5,24.4-23.9l20.3-11.8c14.8-8.6,28.8-13.6,42-15
				c13.2-1.4,24.9,0.7,35,6.6C263.3,397.4,267.1,404.1,264.8,411.7z M194.7,437.5l26.2-15.2c8.4-4.9,13.9-9.1,16.5-12.5
				c2.5-3.4,2-6.2-1.5-8.2c-6.7-3.9-17.9-1.4-33.6,7.5l-26.7,15.5c-8.6,5-14.2,9.3-16.7,12.7c-2.5,3.4-2,6.2,1.6,8.3
				c3.4,2,7.9,2.3,13.5,0.9C179.6,445.2,186.5,442.2,194.7,437.5"/>
			<path class="st18" d="M264.8,411.7c-2.4,7.6-10.7,15.6-25,24.1l-19.5,11.3c-14.8,8.6-28.9,13.7-42.2,15.1
				c-13.3,1.4-24.9-0.7-35-6.5c-9.9-5.7-13.8-12.4-11.6-19.9c2.2-7.6,10.4-15.5,24.4-23.9l20.3-11.8c14.8-8.6,28.8-13.6,42-15
				c13.2-1.4,24.9,0.7,35,6.6C263.3,397.4,267.1,404.1,264.8,411.7z M194.7,437.5l26.2-15.2c8.4-4.9,13.9-9.1,16.5-12.5
				c2.5-3.4,2-6.2-1.5-8.2c-6.7-3.9-17.9-1.4-33.6,7.5l-26.7,15.5c-8.6,5-14.2,9.3-16.7,12.7c-2.5,3.4-2,6.2,1.6,8.3
				c3.4,2,7.9,2.3,13.5,0.9C179.6,445.2,186.5,442.2,194.7,437.5"/>
			<g class="st20">
				<path class="st21" d="M264.8,411.7c-2.4,7.6-10.7,15.6-25,24.1l-19.5,11.3c-14.8,8.6-28.9,13.7-42.2,15.1
					c-13.3,1.4-24.9-0.7-35-6.5c-9.9-5.7-13.8-12.4-11.6-19.9c2.2-7.6,10.4-15.5,24.4-23.9l20.3-11.8c14.8-8.6,28.8-13.6,42-15
					c13.2-1.4,24.9,0.7,35,6.6C263.3,397.4,267.1,404.1,264.8,411.7z M194.7,437.5l26.2-15.2c8.4-4.9,13.9-9.1,16.5-12.5
					c2.5-3.4,2-6.2-1.5-8.2c-6.7-3.9-17.9-1.4-33.6,7.5l-26.7,15.5c-8.6,5-14.2,9.3-16.7,12.7c-2.5,3.4-2,6.2,1.6,8.3
					c3.4,2,7.9,2.3,13.5,0.9C179.6,445.2,186.5,442.2,194.7,437.5"/>
			</g>
		</g>
	</g>
</g>
<g>
	<g>
		<path class="st22" d="M329.5,435.6c9.6,5.6,14.5,11.4,14.5,17.6c0,6.1-4.8,12-14.5,17.7c-6,3.5-13.6,6.2-22.8,8.1
			c-9.2,1.9-22.1,3.3-38.9,4.1l-33.5,3.4l36.7,21.2l-17.3,10.1L190,481l14.7-8.6l66.1-4.6c8.8-0.8,16-1.9,21.6-3.1
			c5.6-1.2,10.2-2.9,13.7-4.9c4.8-2.8,7.7-5.4,8.7-7.9c1-2.5,0-4.7-3.1-6.5c-3.4-2-7.7-2.6-12.8-1.9c-5.1,0.7-10.6,2.7-16.3,6
			l-21.1-12.2c6.6-3.8,14-6.5,22.2-8.1c8.2-1.6,16.3-1.8,24.3-0.7C316.1,429.6,323.2,432,329.5,435.6z"/>
		<path class="st18" d="M329.5,435.6c9.6,5.6,14.5,11.4,14.5,17.6c0,6.1-4.8,12-14.5,17.7c-6,3.5-13.6,6.2-22.8,8.1
			c-9.2,1.9-22.1,3.3-38.9,4.1l-33.5,3.4l36.7,21.2l-17.3,10.1L190,481l14.7-8.6l66.1-4.6c8.8-0.8,16-1.9,21.6-3.1
			c5.6-1.2,10.2-2.9,13.7-4.9c4.8-2.8,7.7-5.4,8.7-7.9c1-2.5,0-4.7-3.1-6.5c-3.4-2-7.7-2.6-12.8-1.9c-5.1,0.7-10.6,2.7-16.3,6
			l-21.1-12.2c6.6-3.8,14-6.5,22.2-8.1c8.2-1.6,16.3-1.8,24.3-0.7C316.1,429.6,323.2,432,329.5,435.6z"/>
		<path class="st23" d="M329.5,435.6c9.6,5.6,14.5,11.4,14.5,17.6c0,6.1-4.8,12-14.5,17.7c-6,3.5-13.6,6.2-22.8,8.1
			c-9.2,1.9-22.1,3.3-38.9,4.1l-33.5,3.4l36.7,21.2l-17.3,10.1L190,481l14.7-8.6l66.1-4.6c8.8-0.8,16-1.9,21.6-3.1
			c5.6-1.2,10.2-2.9,13.7-4.9c4.8-2.8,7.7-5.4,8.7-7.9c1-2.5,0-4.7-3.1-6.5c-3.4-2-7.7-2.6-12.8-1.9c-5.1,0.7-10.6,2.7-16.3,6
			l-21.1-12.2c6.6-3.8,14-6.5,22.2-8.1c8.2-1.6,16.3-1.8,24.3-0.7C316.1,429.6,323.2,432,329.5,435.6z"/>
	</g>
</g>
<g>
	<g>
		<path class="st22" d="M418.4,500.4c-2.4,7.6-10.7,15.6-25,24.1l-19.5,11.3c-14.8,8.6-28.9,13.7-42.2,15.1
			c-13.3,1.4-24.9-0.7-35-6.5c-9.9-5.7-13.8-12.4-11.6-19.9c2.2-7.6,10.4-15.5,24.4-23.9l20.3-11.8c14.8-8.6,28.8-13.6,42-15
			c13.2-1.4,24.9,0.7,35,6.6C417,486.1,420.8,492.8,418.4,500.4z M348.4,526.3l26.2-15.2c8.4-4.9,13.9-9.1,16.5-12.5
			c2.5-3.4,2-6.2-1.5-8.2c-6.7-3.9-17.9-1.4-33.6,7.5l-26.7,15.5c-8.6,5-14.2,9.3-16.7,12.7c-2.5,3.4-2,6.2,1.6,8.3
			c3.4,2,7.9,2.3,13.5,0.9C333.2,534,340.2,530.9,348.4,526.3"/>
		<path class="st18" d="M418.4,500.4c-2.4,7.6-10.7,15.6-25,24.1l-19.5,11.3c-14.8,8.6-28.9,13.7-42.2,15.1
			c-13.3,1.4-24.9-0.7-35-6.5c-9.9-5.7-13.8-12.4-11.6-19.9c2.2-7.6,10.4-15.5,24.4-23.9l20.3-11.8c14.8-8.6,28.8-13.6,42-15
			c13.2-1.4,24.9,0.7,35,6.6C417,486.1,420.8,492.8,418.4,500.4z M348.4,526.3l26.2-15.2c8.4-4.9,13.9-9.1,16.5-12.5
			c2.5-3.4,2-6.2-1.5-8.2c-6.7-3.9-17.9-1.4-33.6,7.5l-26.7,15.5c-8.6,5-14.2,9.3-16.7,12.7c-2.5,3.4-2,6.2,1.6,8.3
			c3.4,2,7.9,2.3,13.5,0.9C333.2,534,340.2,530.9,348.4,526.3"/>
		<g class="st24">
			<path class="st21" d="M418.4,500.4c-2.4,7.6-10.7,15.6-25,24.1l-19.5,11.3c-14.8,8.6-28.9,13.7-42.2,15.1
				c-13.3,1.4-24.9-0.7-35-6.5c-9.9-5.7-13.8-12.4-11.6-19.9c2.2-7.6,10.4-15.5,24.4-23.9l20.3-11.8c14.8-8.6,28.8-13.6,42-15
				c13.2-1.4,24.9,0.7,35,6.6C417,486.1,420.8,492.8,418.4,500.4z M348.4,526.3l26.2-15.2c8.4-4.9,13.9-9.1,16.5-12.5
				c2.5-3.4,2-6.2-1.5-8.2c-6.7-3.9-17.9-1.4-33.6,7.5l-26.7,15.5c-8.6,5-14.2,9.3-16.7,12.7c-2.5,3.4-2,6.2,1.6,8.3
				c3.4,2,7.9,2.3,13.5,0.9C333.2,534,340.2,530.9,348.4,526.3"/>
		</g>
	</g>
</g>
<g>
	<g>
		<path class="st22" d="M341.4,253.1c11.8,6.8,17.4,13.9,17,21.2c-0.4,7.3-6.3,14.8-17.7,22.4L318.8,284c7.4-4.5,11.4-8.2,12.1-11.1
			c0.7-2.9-1.8-6-7.5-9.3c-5.8-3.4-12-4.6-18.5-3.6c-6.5,1-14.4,4.1-23.9,9.4l-20.3,11.8c-10.7,6.2-16.8,11.1-18.4,14.8
			c-1.6,3.7,0.5,7.2,6.4,10.6c5.7,3.3,11.1,4.8,16,4.4c5-0.4,11.2-2.6,18.8-6.6l21.8,12.6c-12.8,6.8-25.5,10.2-38.2,10.2
			c-12.7,0-24.8-3.4-36.4-10.1c-12.2-7.1-17.6-14.8-16.1-23.2c1.5-8.4,9.6-16.9,24.4-25.5l18.1-10.5c14.7-8.6,29.5-13.2,44.2-14
			C316.1,243.1,329.5,246.2,341.4,253.1z"/>
		<path class="st18" d="M341.4,253.1c11.8,6.8,17.4,13.9,17,21.2c-0.4,7.3-6.3,14.8-17.7,22.4L318.8,284c7.4-4.5,11.4-8.2,12.1-11.1
			c0.7-2.9-1.8-6-7.5-9.3c-5.8-3.4-12-4.6-18.5-3.6c-6.5,1-14.4,4.1-23.9,9.4l-20.3,11.8c-10.7,6.2-16.8,11.1-18.4,14.8
			c-1.6,3.7,0.5,7.2,6.4,10.6c5.7,3.3,11.1,4.8,16,4.4c5-0.4,11.2-2.6,18.8-6.6l21.8,12.6c-12.8,6.8-25.5,10.2-38.2,10.2
			c-12.7,0-24.8-3.4-36.4-10.1c-12.2-7.1-17.6-14.8-16.1-23.2c1.5-8.4,9.6-16.9,24.4-25.5l18.1-10.5c14.7-8.6,29.5-13.2,44.2-14
			C316.1,243.1,329.5,246.2,341.4,253.1z"/>
		<path class="st23" d="M341.4,253.1c11.8,6.8,17.4,13.9,17,21.2c-0.4,7.3-6.3,14.8-17.7,22.4L318.8,284c7.4-4.5,11.4-8.2,12.1-11.1
			c0.7-2.9-1.8-6-7.5-9.3c-5.8-3.4-12-4.6-18.5-3.6c-6.5,1-14.4,4.1-23.9,9.4l-20.3,11.8c-10.7,6.2-16.8,11.1-18.4,14.8
			c-1.6,3.7,0.5,7.2,6.4,10.6c5.7,3.3,11.1,4.8,16,4.4c5-0.4,11.2-2.6,18.8-6.6l21.8,12.6c-12.8,6.8-25.5,10.2-38.2,10.2
			c-12.7,0-24.8-3.4-36.4-10.1c-12.2-7.1-17.6-14.8-16.1-23.2c1.5-8.4,9.6-16.9,24.4-25.5l18.1-10.5c14.7-8.6,29.5-13.2,44.2-14
			C316.1,243.1,329.5,246.2,341.4,253.1z"/>
	</g>
</g>
<g>
	<g>
		<polygon class="st22" points="412.3,295.7 323,347.6 361.2,369.7 343.3,380.2 283.2,345.5 390.5,283.2 		"/>
		<polygon class="st18" points="412.3,295.7 323,347.6 361.2,369.7 343.3,380.2 283.2,345.5 390.5,283.2 		"/>
		<polygon class="st23" points="412.3,295.7 323,347.6 361.2,369.7 343.3,380.2 283.2,345.5 390.5,283.2 		"/>
	</g>
</g>
<g>
	<path class="st22" d="M511.2,352.9l-73.3,82l-23.3-13.4l16.2-16.1L401,388.1l-27.7,9.4l-23.1-13.3l141-42.9L511.2,352.9z
		 M423.8,380.4L444,392l28.2-28.1L423.8,380.4"/>
	<path class="st18" d="M511.2,352.9l-73.3,82l-23.3-13.4l16.2-16.1L401,388.1l-27.7,9.4l-23.1-13.3l141-42.9L511.2,352.9z
		 M423.8,380.4L444,392l28.2-28.1L423.8,380.4"/>
	<g class="st24">
		<path class="st21" d="M511.2,352.9l-73.3,82l-23.3-13.4l16.2-16.1L401,388.1l-27.7,9.4l-23.1-13.3l141-42.9L511.2,352.9z
			 M423.8,380.4L444,392l28.2-28.1L423.8,380.4"/>
	</g>
</g>
<g>
	<g>
		<path class="st22" d="M590.5,396.9c6.6,3.8,11.2,8,13.6,12.7c2.4,4.6,2.5,9.2,0.2,13.7c-2.3,4.6-6.6,8.7-13.1,12.4l-21.7-12.5
			c5-2.9,7.8-5.8,8.2-8.5c0.5-2.8-1.3-5.3-5.4-7.7c-3.8-2.2-7.9-3.3-12.3-3.2c-4.4,0.1-8.4,1.2-12.2,3.4c-3,1.7-4.4,3.9-4.4,6.7
			c0,2.8,1.7,6.6,5.2,11.6c6.8,8.3,9.8,15.4,9,21.3c-0.7,6-5.4,11.4-13.9,16.3c-9.3,5.4-19.6,7.9-30.9,7.5
			c-11.2-0.4-22-3.6-32.3-9.5c-7-4-11.9-8.5-14.8-13.5c-2.9-5-3.3-9.9-1.2-14.9c2.1-5,6.7-9.5,13.9-13.7l21.9,12.6
			c-6.2,3.6-9.5,6.9-9.8,9.9c-0.4,3,2.2,6.1,7.7,9.3c7.6,4.4,15.4,4.3,23.4-0.4c4.4-2.5,6.6-5.1,6.5-7.7c0-2.6-1.8-6.3-5.3-11.1
			c-6.8-8.6-9.8-15.9-9-21.8c0.7-5.9,4.8-11.1,12.3-15.4c9-5.3,19.5-7.6,31.5-7.1C569.6,388,580.6,391.2,590.5,396.9z"/>
		<path class="st18" d="M590.5,396.9c6.6,3.8,11.2,8,13.6,12.7c2.4,4.6,2.5,9.2,0.2,13.7c-2.3,4.6-6.6,8.7-13.1,12.4l-21.7-12.5
			c5-2.9,7.8-5.8,8.2-8.5c0.5-2.8-1.3-5.3-5.4-7.7c-3.8-2.2-7.9-3.3-12.3-3.2c-4.4,0.1-8.4,1.2-12.2,3.4c-3,1.7-4.4,3.9-4.4,6.7
			c0,2.8,1.7,6.6,5.2,11.6c6.8,8.3,9.8,15.4,9,21.3c-0.7,6-5.4,11.4-13.9,16.3c-9.3,5.4-19.6,7.9-30.9,7.5
			c-11.2-0.4-22-3.6-32.3-9.5c-7-4-11.9-8.5-14.8-13.5c-2.9-5-3.3-9.9-1.2-14.9c2.1-5,6.7-9.5,13.9-13.7l21.9,12.6
			c-6.2,3.6-9.5,6.9-9.8,9.9c-0.4,3,2.2,6.1,7.7,9.3c7.6,4.4,15.4,4.3,23.4-0.4c4.4-2.5,6.6-5.1,6.5-7.7c0-2.6-1.8-6.3-5.3-11.1
			c-6.8-8.6-9.8-15.9-9-21.8c0.7-5.9,4.8-11.1,12.3-15.4c9-5.3,19.5-7.6,31.5-7.1C569.6,388,580.6,391.2,590.5,396.9z"/>
		<path class="st23" d="M590.5,396.9c6.6,3.8,11.2,8,13.6,12.7c2.4,4.6,2.5,9.2,0.2,13.7c-2.3,4.6-6.6,8.7-13.1,12.4l-21.7-12.5
			c5-2.9,7.8-5.8,8.2-8.5c0.5-2.8-1.3-5.3-5.4-7.7c-3.8-2.2-7.9-3.3-12.3-3.2c-4.4,0.1-8.4,1.2-12.2,3.4c-3,1.7-4.4,3.9-4.4,6.7
			c0,2.8,1.7,6.6,5.2,11.6c6.8,8.3,9.8,15.4,9,21.3c-0.7,6-5.4,11.4-13.9,16.3c-9.3,5.4-19.6,7.9-30.9,7.5
			c-11.2-0.4-22-3.6-32.3-9.5c-7-4-11.9-8.5-14.8-13.5c-2.9-5-3.3-9.9-1.2-14.9c2.1-5,6.7-9.5,13.9-13.7l21.9,12.6
			c-6.2,3.6-9.5,6.9-9.8,9.9c-0.4,3,2.2,6.1,7.7,9.3c7.6,4.4,15.4,4.3,23.4-0.4c4.4-2.5,6.6-5.1,6.5-7.7c0-2.6-1.8-6.3-5.3-11.1
			c-6.8-8.6-9.8-15.9-9-21.8c0.7-5.9,4.8-11.1,12.3-15.4c9-5.3,19.5-7.6,31.5-7.1C569.6,388,580.6,391.2,590.5,396.9z"/>
	</g>
</g>
<g>
	<g>
		<path class="st22" d="M672.5,444.3c6.6,3.8,11.1,8,13.6,12.7c2.4,4.6,2.5,9.2,0.2,13.7c-2.3,4.6-6.6,8.7-13,12.4l-21.7-12.5
			c5-2.9,7.8-5.8,8.2-8.5c0.5-2.8-1.3-5.3-5.4-7.7c-3.8-2.2-7.9-3.3-12.2-3.2c-4.4,0.1-8.4,1.2-12.2,3.4c-3,1.7-4.4,3.9-4.4,6.7
			c0,2.8,1.7,6.6,5.2,11.6c6.7,8.3,9.8,15.4,9,21.3c-0.7,6-5.4,11.4-13.9,16.3c-9.3,5.4-19.6,7.9-30.9,7.5
			c-11.2-0.4-22-3.6-32.3-9.5c-7-4-11.9-8.5-14.8-13.5c-2.9-5-3.3-9.9-1.2-14.9c2.1-5,6.7-9.5,13.9-13.7l21.9,12.6
			c-6.2,3.6-9.5,6.9-9.8,9.9c-0.4,3,2.2,6.1,7.7,9.3c7.6,4.4,15.4,4.3,23.4-0.4c4.4-2.5,6.6-5.1,6.5-7.7c0-2.6-1.8-6.3-5.3-11.1
			c-6.8-8.6-9.8-15.9-9-21.8c0.7-5.9,4.8-11.1,12.3-15.4c9-5.3,19.5-7.6,31.5-7.1C651.7,435.4,662.6,438.5,672.5,444.3z"/>
		<path class="st18" d="M672.5,444.3c6.6,3.8,11.1,8,13.6,12.7c2.4,4.6,2.5,9.2,0.2,13.7c-2.3,4.6-6.6,8.7-13,12.4l-21.7-12.5
			c5-2.9,7.8-5.8,8.2-8.5c0.5-2.8-1.3-5.3-5.4-7.7c-3.8-2.2-7.9-3.3-12.2-3.2c-4.4,0.1-8.4,1.2-12.2,3.4c-3,1.7-4.4,3.9-4.4,6.7
			c0,2.8,1.7,6.6,5.2,11.6c6.7,8.3,9.8,15.4,9,21.3c-0.7,6-5.4,11.4-13.9,16.3c-9.3,5.4-19.6,7.9-30.9,7.5
			c-11.2-0.4-22-3.6-32.3-9.5c-7-4-11.9-8.5-14.8-13.5c-2.9-5-3.3-9.9-1.2-14.9c2.1-5,6.7-9.5,13.9-13.7l21.9,12.6
			c-6.2,3.6-9.5,6.9-9.8,9.9c-0.4,3,2.2,6.1,7.7,9.3c7.6,4.4,15.4,4.3,23.4-0.4c4.4-2.5,6.6-5.1,6.5-7.7c0-2.6-1.8-6.3-5.3-11.1
			c-6.8-8.6-9.8-15.9-9-21.8c0.7-5.9,4.8-11.1,12.3-15.4c9-5.3,19.5-7.6,31.5-7.1C651.7,435.4,662.6,438.5,672.5,444.3z"/>
		<path class="st23" d="M672.5,444.3c6.6,3.8,11.1,8,13.6,12.7c2.4,4.6,2.5,9.2,0.2,13.7c-2.3,4.6-6.6,8.7-13,12.4l-21.7-12.5
			c5-2.9,7.8-5.8,8.2-8.5c0.5-2.8-1.3-5.3-5.4-7.7c-3.8-2.2-7.9-3.3-12.2-3.2c-4.4,0.1-8.4,1.2-12.2,3.4c-3,1.7-4.4,3.9-4.4,6.7
			c0,2.8,1.7,6.6,5.2,11.6c6.7,8.3,9.8,15.4,9,21.3c-0.7,6-5.4,11.4-13.9,16.3c-9.3,5.4-19.6,7.9-30.9,7.5
			c-11.2-0.4-22-3.6-32.3-9.5c-7-4-11.9-8.5-14.8-13.5c-2.9-5-3.3-9.9-1.2-14.9c2.1-5,6.7-9.5,13.9-13.7l21.9,12.6
			c-6.2,3.6-9.5,6.9-9.8,9.9c-0.4,3,2.2,6.1,7.7,9.3c7.6,4.4,15.4,4.3,23.4-0.4c4.4-2.5,6.6-5.1,6.5-7.7c0-2.6-1.8-6.3-5.3-11.1
			c-6.8-8.6-9.8-15.9-9-21.8c0.7-5.9,4.8-11.1,12.3-15.4c9-5.3,19.5-7.6,31.5-7.1C651.7,435.4,662.6,438.5,672.5,444.3z"/>
	</g>
</g>
<g>
	<g>
		<path class="st22" d="M809.1,537.3c-1.2,8.7-9.1,17.4-23.7,26l-18.3,10.7c-14.4,8.4-29,12.9-43.8,13.6
			c-14.8,0.7-28.3-2.5-40.5-9.5c-12.1-7-17.7-14.8-16.7-23.4c1-8.6,8.5-17,22.6-25.3l18.3-10.7c14.7-8.6,29.7-13.3,44.8-14.1
			c15.1-0.8,28.8,2.3,41,9.3C804.9,520.7,810.3,528.6,809.1,537.3z M744.5,561.7l18.6-10.8c9.7-5.6,15.5-10.6,17.4-14.9
			c1.9-4.3,0-8.2-5.8-11.6c-5.8-3.3-12.3-4.5-19.7-3.4c-7.3,1-15.7,4.2-25,9.6L711,541.5c-9.4,5.5-14.9,10.3-16.5,14.5
			c-1.6,4.2,0.5,8,6.4,11.4c5.7,3.3,12.1,4.5,19.2,3.5C727.2,570.1,735.3,566.9,744.5,561.7"/>
		<path class="st18" d="M809.1,537.3c-1.2,8.7-9.1,17.4-23.7,26l-18.3,10.7c-14.4,8.4-29,12.9-43.8,13.6
			c-14.8,0.7-28.3-2.5-40.5-9.5c-12.1-7-17.7-14.8-16.7-23.4c1-8.6,8.5-17,22.6-25.3l18.3-10.7c14.7-8.6,29.7-13.3,44.8-14.1
			c15.1-0.8,28.8,2.3,41,9.3C804.9,520.7,810.3,528.6,809.1,537.3z M744.5,561.7l18.6-10.8c9.7-5.6,15.5-10.6,17.4-14.9
			c1.9-4.3,0-8.2-5.8-11.6c-5.8-3.3-12.3-4.5-19.7-3.4c-7.3,1-15.7,4.2-25,9.6L711,541.5c-9.4,5.5-14.9,10.3-16.5,14.5
			c-1.6,4.2,0.5,8,6.4,11.4c5.7,3.3,12.1,4.5,19.2,3.5C727.2,570.1,735.3,566.9,744.5,561.7"/>
		<g class="st24">
			<path class="st21" d="M809.1,537.3c-1.2,8.7-9.1,17.4-23.7,26l-18.3,10.7c-14.4,8.4-29,12.9-43.8,13.6
				c-14.8,0.7-28.3-2.5-40.5-9.5c-12.1-7-17.7-14.8-16.7-23.4c1-8.6,8.5-17,22.6-25.3l18.3-10.7c14.7-8.6,29.7-13.3,44.8-14.1
				c15.1-0.8,28.8,2.3,41,9.3C804.9,520.7,810.3,528.6,809.1,537.3z M744.5,561.7l18.6-10.8c9.7-5.6,15.5-10.6,17.4-14.9
				c1.9-4.3,0-8.2-5.8-11.6c-5.8-3.3-12.3-4.5-19.7-3.4c-7.3,1-15.7,4.2-25,9.6L711,541.5c-9.4,5.5-14.9,10.3-16.5,14.5
				c-1.6,4.2,0.5,8,6.4,11.4c5.7,3.3,12.1,4.5,19.2,3.5C727.2,570.1,735.3,566.9,744.5,561.7"/>
		</g>
	</g>
</g>
<g>
	<g>
		<polygon class="st22" points="905.8,580.7 887.8,591.2 849.8,569.2 822.3,585.2 856.2,604.8 838.2,615.2 804.3,595.7 760.5,621.1 
			738.7,608.5 846,546.2 		"/>
		<polygon class="st18" points="905.8,580.7 887.8,591.2 849.8,569.2 822.3,585.2 856.2,604.8 838.2,615.2 804.3,595.7 760.5,621.1 
			738.7,608.5 846,546.2 		"/>
		<polygon class="st23" points="905.8,580.7 887.8,591.2 849.8,569.2 822.3,585.2 856.2,604.8 838.2,615.2 804.3,595.7 760.5,621.1 
			738.7,608.5 846,546.2 		"/>
	</g>
</g>
</svg>
