<?xml version="1.0" encoding="utf-8"?>
<!-- Generator: Adobe Illustrator 22.0.1, SVG Export Plug-In . SVG Version: 6.00 Build 0)  -->
<svg version="1.1" xmlns="http://www.w3.org/2000/svg" xmlns:xlink="http://www.w3.org/1999/xlink" x="0px" y="0px"
	 viewBox="0 0 1280 800" style="enable-background:new 0 0 1280 800;" xml:space="preserve">
<style type="text/css">
	.st0{fill:#666666;}
	.st1{fill:#FFFFFF;}
	.st2{fill:#FFFFFF;stroke:#FFFFFF;stroke-width:8;stroke-miterlimit:10;}
	.st3{fill:#00BEEA;}
	.st4{fill:#ED1B61;}
	.st5{fill:#FFFFFF;stroke:#FFFFFF;stroke-width:2.3636;stroke-miterlimit:10;}
	.st6{fill:none;stroke:#FFFFFF;stroke-width:4.2769;stroke-miterlimit:10;}
	.st7{opacity:0.32;}
	.st8{fill:#E57315;}
	.st9{fill:#FCCADD;}
	.st10{fill:#82A6E0;}
	.st11{fill:#C6C639;}
	.st12{fill:#52ABBA;}
	.st13{fill:#24D1C4;}
	.st14{fill:#85C924;}
	.st15{fill:#F20661;}
	.st16{fill:#1B82C1;}
	.st17{fill:#A678B5;}
	.st18{fill:#78C62C;}
	.st19{fill:#FC5151;}
	.st20{fill:#59DB0E;}
	.st21{fill:#E29700;}
	.st22{fill:#FF9D33;}
	.st23{fill:#FFCE31;}
	.st24{fill:#FFDF85;}
	.st25{fill:#FFDD67;}
	.st26{fill:#664E27;}
	.st27{fill:#4C3526;}
	.st28{fill:#FF717F;}
	.st29{fill:#65B1EF;}
	.st30{fill:#F7B600;}
	.st31{fill:#FFDD7D;}
	.st32{fill:#493816;}
	.st33{fill:#42ADE2;}
	.st34{fill:#FF8736;}
	.st35{fill:#ED4C5C;}
	.st36{fill:#C28FEF;}
	.st37{fill:#FF5A79;}
	.st38{fill:#F46767;}
	.st39{fill:#EBA352;}
	.st40{fill:#D0D0D0;}
	.st41{fill:#231F20;}
	.st42{fill:#4AA9FF;}
	.st43{fill:#DDE8E3;}
	.st44{fill:#493B30;}
	.st45{fill:#EF4E16;}
	.st46{fill:#F2B200;}
	.st47{fill:#BC845E;}
	.st48{fill:#916140;}
	.st49{fill:#CE9C7A;}
	.st50{fill:#596066;}
	.st51{fill:#3E4347;}
	.st52{fill:#594640;}
</style>
<g id="bg">
	<g class="st7">
		<path class="st0" d="M202,76.4H178c-12.4,0-22.5-10.1-22.5-22.5V29.8c0-12.4,10.1-22.5,22.5-22.5H202c12.4,0,22.5,10.1,22.5,22.5
			v24.1C224.5,66.2,214.4,76.4,202,76.4z"/>
		<path class="st8" d="M321.4,76.4h-24.1c-12.4,0-22.5-10.1-22.5-22.5V29.8c0-12.4,10.1-22.5,22.5-22.5h24.1
			c12.4,0,22.5,10.1,22.5,22.5v24.1C343.9,66.2,333.7,76.4,321.4,76.4z"/>
		<path class="st9" d="M560,76.4h-24.1c-12.4,0-22.5-10.1-22.5-22.5V29.8c0-12.4,10.1-22.5,22.5-22.5H560
			c12.4,0,22.5,10.1,22.5,22.5v24.1C582.5,66.2,572.4,76.4,560,76.4z"/>
	</g>
	<g class="st7">
		<path class="st10" d="M202,180.1H178c-12.4,0-22.5-10.1-22.5-22.5v-24.1c0-12.4,10.1-22.5,22.5-22.5H202
			c12.4,0,22.5,10.1,22.5,22.5v24.1C224.5,170,214.4,180.1,202,180.1z"/>
		<path class="st11" d="M440.7,180.1h-24.1c-12.4,0-22.5-10.1-22.5-22.5v-24.1c0-12.4,10.1-22.5,22.5-22.5h24.1
			c12.4,0,22.5,10.1,22.5,22.5v24.1C463.2,170,453,180.1,440.7,180.1z"/>
	</g>
	<g class="st7">
		<path class="st0" d="M82.7,283.9H58.7c-12.4,0-22.5-10.1-22.5-22.5v-24.1c0-12.4,10.1-22.5,22.5-22.5h24.1
			c12.4,0,22.5,10.1,22.5,22.5v24.1C105.2,273.8,95.1,283.9,82.7,283.9z"/>
		<path class="st0" d="M321.4,283.9h-24.1c-12.4,0-22.5-10.1-22.5-22.5v-24.1c0-12.4,10.1-22.5,22.5-22.5h24.1
			c12.4,0,22.5,10.1,22.5,22.5v24.1C343.9,273.8,333.7,283.9,321.4,283.9z"/>
		<path class="st0" d="M560,283.9h-24.1c-12.4,0-22.5-10.1-22.5-22.5v-24.1c0-12.4,10.1-22.5,22.5-22.5H560
			c12.4,0,22.5,10.1,22.5,22.5v24.1C582.5,273.8,572.4,283.9,560,283.9z"/>
	</g>
	<g class="st7">
		<path class="st12" d="M202,387.7H178c-12.4,0-22.5-10.1-22.5-22.5v-24.1c0-12.4,10.1-22.5,22.5-22.5H202
			c12.4,0,22.5,10.1,22.5,22.5v24.1C224.5,377.6,214.4,387.7,202,387.7z"/>
		<path class="st0" d="M440.7,387.7h-24.1c-12.4,0-22.5-10.1-22.5-22.5v-24.1c0-12.4,10.1-22.5,22.5-22.5h24.1
			c12.4,0,22.5,10.1,22.5,22.5v24.1C463.2,377.6,453,387.7,440.7,387.7z"/>
	</g>
	<g class="st7">
		<path class="st0" d="M82.7,491.5H58.7c-12.4,0-22.5-10.1-22.5-22.5v-24.1c0-12.4,10.1-22.5,22.5-22.5h24.1
			c12.4,0,22.5,10.1,22.5,22.5V469C105.2,481.3,95.1,491.5,82.7,491.5z"/>
		<path class="st0" d="M202,491.5H178c-12.4,0-22.5-10.1-22.5-22.5v-24.1c0-12.4,10.1-22.5,22.5-22.5H202
			c12.4,0,22.5,10.1,22.5,22.5V469C224.5,481.3,214.4,491.5,202,491.5z"/>
		<path class="st13" d="M321.4,491.5h-24.1c-12.4,0-22.5-10.1-22.5-22.5v-24.1c0-12.4,10.1-22.5,22.5-22.5h24.1
			c12.4,0,22.5,10.1,22.5,22.5V469C343.9,481.3,333.7,491.5,321.4,491.5z"/>
		<path class="st0" d="M440.7,491.5h-24.1c-12.4,0-22.5-10.1-22.5-22.5v-24.1c0-12.4,10.1-22.5,22.5-22.5h24.1
			c12.4,0,22.5,10.1,22.5,22.5V469C463.2,481.3,453,491.5,440.7,491.5z"/>
		<path class="st0" d="M560,491.5h-24.1c-12.4,0-22.5-10.1-22.5-22.5v-24.1c0-12.4,10.1-22.5,22.5-22.5H560
			c12.4,0,22.5,10.1,22.5,22.5V469C582.5,481.3,572.4,491.5,560,491.5z"/>
	</g>
	<g class="st7">
		<path class="st14" d="M202,595.2H178c-12.4,0-22.5-10.1-22.5-22.5v-24.1c0-12.4,10.1-22.5,22.5-22.5H202
			c12.4,0,22.5,10.1,22.5,22.5v24.1C224.5,585.1,214.4,595.2,202,595.2z"/>
		<path class="st15" d="M440.7,595.2h-24.1c-12.4,0-22.5-10.1-22.5-22.5v-24.1c0-12.4,10.1-22.5,22.5-22.5h24.1
			c12.4,0,22.5,10.1,22.5,22.5v24.1C463.2,585.1,453,595.2,440.7,595.2z"/>
		<path class="st16" d="M560,595.2h-24.1c-12.4,0-22.5-10.1-22.5-22.5v-24.1c0-12.4,10.1-22.5,22.5-22.5H560
			c12.4,0,22.5,10.1,22.5,22.5v24.1C582.5,585.1,572.4,595.2,560,595.2z"/>
	</g>
	<g class="st7">
		<path class="st0" d="M82.7,699H58.7c-12.4,0-22.5-10.1-22.5-22.5v-24.1c0-12.4,10.1-22.5,22.5-22.5h24.1
			c12.4,0,22.5,10.1,22.5,22.5v24.1C105.2,688.9,95.1,699,82.7,699z"/>
		<path class="st0" d="M321.4,699h-24.1c-12.4,0-22.5-10.1-22.5-22.5v-24.1c0-12.4,10.1-22.5,22.5-22.5h24.1
			c12.4,0,22.5,10.1,22.5,22.5v24.1C343.9,688.9,333.7,699,321.4,699z"/>
		<path class="st0" d="M440.7,699h-24.1c-12.4,0-22.5-10.1-22.5-22.5v-24.1c0-12.4,10.1-22.5,22.5-22.5h24.1
			c12.4,0,22.5,10.1,22.5,22.5v24.1C463.2,688.9,453,699,440.7,699z"/>
	</g>
	<g class="st7">
		<path class="st17" d="M82.7,802.8H58.7c-12.4,0-22.5-10.1-22.5-22.5v-24.1c0-12.4,10.1-22.5,22.5-22.5h24.1
			c12.4,0,22.5,10.1,22.5,22.5v24.1C105.2,792.7,95.1,802.8,82.7,802.8z"/>
		<path class="st18" d="M202,802.8H178c-12.4,0-22.5-10.1-22.5-22.5v-24.1c0-12.4,10.1-22.5,22.5-22.5H202
			c12.4,0,22.5,10.1,22.5,22.5v24.1C224.5,792.7,214.4,802.8,202,802.8z"/>
		<path class="st0" d="M440.7,802.8h-24.1c-12.4,0-22.5-10.1-22.5-22.5v-24.1c0-12.4,10.1-22.5,22.5-22.5h24.1
			c12.4,0,22.5,10.1,22.5,22.5v24.1C463.2,792.7,453,802.8,440.7,802.8z"/>
		<path class="st19" d="M560,802.8h-24.1c-12.4,0-22.5-10.1-22.5-22.5v-24.1c0-12.4,10.1-22.5,22.5-22.5H560
			c12.4,0,22.5,10.1,22.5,22.5v24.1C582.5,792.7,572.4,802.8,560,802.8z"/>
	</g>
	<g>
		<g>
			<path class="st0" d="M558.9,179.4h-24.1c-12.4,0-22.5-10.1-22.5-22.5v-24.1c0-12.4,10.1-22.5,22.5-22.5h24.1
				c12.4,0,22.5,10.1,22.5,22.5v24.1C581.4,169.2,571.3,179.4,558.9,179.4z"/>
		</g>
		<g>
			<path class="st1" d="M536.9,158.1v-27.8h9.7c3.4,0,5.9,0.6,7.7,1.9c1.7,1.3,2.6,3.2,2.6,5.7c0,1.4-0.4,2.6-1.1,3.6
				c-0.7,1-1.7,1.8-2.9,2.3c1.4,0.4,2.6,1.1,3.4,2.2c0.8,1.1,1.2,2.4,1.2,4c0,2.7-0.9,4.7-2.6,6.1c-1.7,1.4-4.1,2.1-7.3,2.1H536.9z
				 M542.6,142h4.2c2.9-0.1,4.3-1.2,4.3-3.5c0-1.3-0.4-2.2-1.1-2.7c-0.7-0.6-1.9-0.8-3.5-0.8h-4V142z M542.6,146v7.5h4.9
				c1.3,0,2.4-0.3,3.2-1c0.8-0.6,1.1-1.5,1.1-2.7c0-2.5-1.3-3.8-4-3.9H542.6z"/>
		</g>
	</g>
	<g>
		<g>
			<path class="st0" d="M82.9,699.4H58.8c-12.4,0-22.5-10.1-22.5-22.5v-24.1c0-12.4,10.1-22.5,22.5-22.5h24.1
				c12.4,0,22.5,10.1,22.5,22.5v24.1C105.4,689.2,95.3,699.4,82.9,699.4z"/>
		</g>
		<g>
			<path class="st1" d="M60.9,678.1v-27.8h9.7c3.4,0,5.9,0.6,7.7,1.9c1.7,1.3,2.6,3.2,2.6,5.7c0,1.4-0.4,2.6-1.1,3.6
				c-0.7,1-1.7,1.8-2.9,2.3c1.4,0.4,2.6,1.1,3.4,2.2s1.2,2.4,1.2,4c0,2.7-0.9,4.7-2.6,6.1s-4.1,2.1-7.3,2.1H60.9z M66.6,662h4.2
				c2.9-0.1,4.3-1.2,4.3-3.5c0-1.3-0.4-2.2-1.1-2.7c-0.7-0.6-1.9-0.8-3.5-0.8h-4V662z M66.6,666v7.5h4.9c1.3,0,2.4-0.3,3.2-1
				c0.8-0.6,1.1-1.5,1.1-2.7c0-2.5-1.3-3.8-4-3.9H66.6z"/>
		</g>
	</g>
	<g>
		<path class="st0" d="M320.8,387h-24.1c-12.4,0-22.5-10.1-22.5-22.5v-24.1c0-12.4,10.1-22.5,22.5-22.5h24.1
			c12.4,0,22.5,10.1,22.5,22.5v24.1C343.3,376.9,333.2,387,320.8,387z"/>
		<g>
			<path class="st1" d="M307.8,365.8h-2.3l4.8-27.8h2.3L307.8,365.8z"/>
		</g>
		<g>
			<path class="st1" d="M308.6,365.8h-2.3l4.8-27.8h2.3L308.6,365.8z"/>
		</g>
		<g>
			<path class="st1" d="M309,365.8h-2.3l4.8-27.8h2.3L309,365.8z"/>
		</g>
	</g>
	<g>
		<path class="st0" d="M201.8,76h-24.1c-12.4,0-22.5-10.1-22.5-22.5V29.5c0-12.4,10.1-22.5,22.5-22.5h24.1
			c12.4,0,22.5,10.1,22.5,22.5v24.1C224.3,65.9,214.2,76,201.8,76z"/>
		<g>
			<path class="st1" d="M188.8,54.8h-2.3l4.8-27.8h2.3L188.8,54.8z"/>
		</g>
		<g>
			<path class="st1" d="M189.6,54.8h-2.3l4.8-27.8h2.3L189.6,54.8z"/>
		</g>
		<g>
			<path class="st1" d="M190,54.8h-2.3l4.8-27.8h2.3L190,54.8z"/>
		</g>
	</g>
	<g>
		<g>
			<path class="st0" d="M202,490.9h-24.1c-12.4,0-22.5-10.1-22.5-22.5v-24.1c0-12.4,10.1-22.5,22.5-22.5H202
				c12.4,0,22.5,10.1,22.5,22.5v24.1C224.5,480.8,214.3,490.9,202,490.9z"/>
		</g>
		<g>
			<path class="st1" d="M194.8,462.4c0-1.1-0.4-1.9-1.1-2.5c-0.8-0.6-2.1-1.2-4.1-1.8c-2-0.6-3.6-1.3-4.7-1.9
				c-3.2-1.7-4.7-4-4.7-6.9c0-1.5,0.4-2.8,1.3-4c0.8-1.2,2.1-2.1,3.6-2.8c1.6-0.7,3.4-1,5.3-1c2,0,3.8,0.4,5.3,1.1
				c1.6,0.7,2.8,1.7,3.6,3c0.9,1.3,1.3,2.8,1.3,4.5h-5.7c0-1.3-0.4-2.3-1.2-3c-0.8-0.7-1.9-1.1-3.4-1.1c-1.4,0-2.5,0.3-3.3,0.9
				c-0.8,0.6-1.2,1.4-1.2,2.3c0,0.9,0.5,1.7,1.4,2.3s2.3,1.2,4,1.7c3.3,1,5.6,2.2,7.1,3.6c1.5,1.5,2.2,3.3,2.2,5.4
				c0,2.4-0.9,4.3-2.7,5.7c-1.8,1.4-4.3,2.1-7.4,2.1c-2.1,0-4.1-0.4-5.8-1.2c-1.8-0.8-3.1-1.9-4-3.2c-0.9-1.4-1.4-2.9-1.4-4.7h5.8
				c0,3.1,1.8,4.6,5.5,4.6c1.4,0,2.4-0.3,3.2-0.8C194.4,464.2,194.8,463.4,194.8,462.4z"/>
		</g>
		<g>
			<rect x="176.7" y="454" class="st1" width="27.8" height="3.1"/>
		</g>
	</g>
	<g>
		<g>
			<path class="st0" d="M321.4,282.3h-24.1c-12.4,0-22.5-10.1-22.5-22.5v-24.1c0-12.4,10.1-22.5,22.5-22.5h24.1
				c12.4,0,22.5,10.1,22.5,22.5v24.1C343.9,272.2,333.8,282.3,321.4,282.3z"/>
		</g>
		<g>
			<path class="st1" d="M314.4,249.9h-10l-1.9,5.7h-6.1l10.4-27.8h5.3l10.4,27.8h-6.1L314.4,249.9z M305.9,245.3h7l-3.5-10.4
				L305.9,245.3z"/>
		</g>
		<g>
			<path class="st3" d="M329.5,271.3h-40.3c-2.2,0-3.9-1.8-3.9-3.9v0c0-2.2,1.8-3.9,3.9-3.9h40.3c2.2,0,3.9,1.8,3.9,3.9v0
				C333.4,269.5,331.7,271.3,329.5,271.3z"/>
		</g>
	</g>
	<g>
		<g>
			<path class="st0" d="M440.4,804.3h-24.1c-12.4,0-22.5-10.1-22.5-22.5v-24.1c0-12.4,10.1-22.5,22.5-22.5h24.1
				c12.4,0,22.5,10.1,22.5,22.5v24.1C462.9,794.2,452.8,804.3,440.4,804.3z"/>
		</g>
		<g>
			<path class="st1" d="M433.4,771.9h-10l-1.9,5.7h-6.1l10.4-27.8h5.3l10.4,27.8h-6.1L433.4,771.9z M424.9,767.3h7l-3.5-10.4
				L424.9,767.3z"/>
		</g>
		<g>
			<path class="st20" d="M448.5,793.3h-40.3c-2.2,0-3.9-1.8-3.9-3.9l0,0c0-2.2,1.8-3.9,3.9-3.9h40.3c2.2,0,3.9,1.8,3.9,3.9l0,0
				C452.4,791.5,450.7,793.3,448.5,793.3z"/>
		</g>
	</g>
	<g>
		<g>
			<path class="st0" d="M440.3,492.2h-24.1c-12.4,0-22.5-10.1-22.5-22.5v-24.1c0-12.4,10.1-22.5,22.5-22.5h24.1
				c12.4,0,22.5,10.1,22.5,22.5v24.1C462.8,482.1,452.6,492.2,440.3,492.2z"/>
		</g>
		<g>
			<path class="st4" d="M448.4,481.1h-40.3c-2.2,0-3.9-1.8-3.9-3.9l0,0c0-2.2,1.8-3.9,3.9-3.9h40.3c2.2,0,3.9,1.8,3.9,3.9l0,0
				C452.3,479.4,450.5,481.1,448.4,481.1z"/>
		</g>
		<g>
			<g>
				<path class="st1" d="M426.9,438.2l5.6,5.6l5.8,5.8L424.9,463c-0.3,0.3-0.9,0.3-1.2,0l-10.2-10.2c-0.3-0.3-0.3-0.9,0-1.2
					L426.9,438.2 M426.9,435.8l-14.6,14.6c-1,1-1,2.7,0,3.7c0,0,0,0,0,0l10.2,10.2c1,1,2.7,1,3.7,0c0,0,0,0,0,0l14.6-14.6l-7-7
					L426.9,435.8z"/>
			</g>
			<g>
				<path class="st1" d="M435.4,444.3c0,0,5.6,0.1,7.7,2.6c3.1,3.6,2.7,10.2,2.8,14.3c0.1,3.8-0.8,0.3-1.3-1.8
					c-0.4-1.9-0.6-4.8-1.7-8.1c-1.1-3.5-3.2-1.6-4.2-1.8L435.4,444.3z"/>
				<path class="st1" d="M445.7,463.3c-0.4,0-0.7-0.4-1.5-3.9c-0.1-0.6-0.3-1.3-0.4-2.2c-0.3-1.6-0.6-3.7-1.3-5.9
					c-0.7-2.2-1.6-1.9-2.7-1.6c-0.4,0.1-0.8,0.2-1.2,0.2l-0.2,0l-3.9-6l0.9,0c0.2,0,5.9,0.1,8.1,2.7c2.8,3.3,2.8,8.8,2.9,12.8
					c0,0.6,0,1.2,0,1.8c0.1,1.5,0,2.1-0.6,2.2C445.8,463.3,445.8,463.3,445.7,463.3z M440.8,448.6c0.9,0,1.9,0.5,2.5,2.5
					c0.8,2.3,1.1,4.4,1.4,6.1c0.1,0.8,0.2,1.5,0.4,2.1c0.1,0.6,0.3,1.1,0.4,1.6c0-0.5,0-1,0-1.5c-0.1-3.9-0.1-9.2-2.7-12.2
					c-1.5-1.7-4.9-2.2-6.5-2.4l2.7,4.2c0.2,0,0.4-0.1,0.6-0.1C439.9,448.7,440.4,448.6,440.8,448.6z"/>
			</g>
			<g>
				<circle class="st1" cx="429.1" cy="447.4" r="2.2"/>
				<path class="st1" d="M429.1,450c-1.4,0-2.6-1.2-2.6-2.6c0-1.4,1.2-2.6,2.6-2.6s2.6,1.2,2.6,2.6C431.7,448.9,430.6,450,429.1,450
					z M429.1,445.7c-0.9,0-1.7,0.8-1.7,1.7c0,0.9,0.8,1.7,1.7,1.7s1.7-0.8,1.7-1.7C430.8,446.5,430.1,445.7,429.1,445.7z"/>
			</g>
			<g>
				<path class="st1" d="M429.1,448.2c-2.3-0.1-13.9-0.9-14.5-5.4c-0.1-0.8,0.1-1.6,0.6-2.3c2.2-2.8,9.6-3.4,10.5-3.4l0.1,1.7
					c-2.1,0.1-7.8,0.9-9.3,2.8c-0.3,0.3-0.4,0.6-0.3,1c0.4,2.3,7.8,3.7,13,4L429.1,448.2z"/>
			</g>
		</g>
	</g>
	<g>
		<g>
			<path class="st0" d="M82.3,283.2H58.2c-12.4,0-22.5-10.1-22.5-22.5v-24.1c0-12.4,10.1-22.5,22.5-22.5h24.1
				c12.4,0,22.5,10.1,22.5,22.5v24.1C104.8,273.1,94.6,283.2,82.3,283.2z"/>
		</g>
		<g>
			<path class="st21" d="M90.4,272.1H50.1c-2.2,0-3.9-1.8-3.9-3.9l0,0c0-2.2,1.8-3.9,3.9-3.9h40.3c2.2,0,3.9,1.8,3.9,3.9l0,0
				C94.3,270.4,92.5,272.1,90.4,272.1z"/>
		</g>
		<g>
			<g>
				<path class="st1" d="M68.9,229.2l5.6,5.6l5.8,5.8L66.9,254c-0.3,0.3-0.9,0.3-1.2,0l-10.2-10.2c-0.3-0.3-0.3-0.9,0-1.2
					L68.9,229.2 M68.9,226.8l-14.6,14.6c-1,1-1,2.7,0,3.7c0,0,0,0,0,0l10.2,10.2c1,1,2.7,1,3.7,0c0,0,0,0,0,0l14.6-14.6l-7-7
					L68.9,226.8z"/>
			</g>
			<g>
				<path class="st1" d="M77.4,235.3c0,0,5.6,0.1,7.7,2.6c3.1,3.6,2.7,10.2,2.8,14.3c0.1,3.8-0.8,0.3-1.3-1.8
					c-0.4-1.9-0.6-4.8-1.7-8.1c-1.1-3.5-3.2-1.6-4.2-1.8L77.4,235.3z"/>
				<path class="st1" d="M87.7,254.3c-0.4,0-0.7-0.4-1.5-3.9c-0.1-0.6-0.3-1.3-0.4-2.2c-0.3-1.6-0.6-3.7-1.3-5.9
					c-0.7-2.2-1.6-1.9-2.7-1.6c-0.4,0.1-0.8,0.2-1.2,0.2l-0.2,0l-3.9-6l0.9,0c0.2,0,5.9,0.1,8.1,2.7c2.8,3.3,2.8,8.8,2.9,12.8
					c0,0.6,0,1.2,0,1.8c0.1,1.5,0,2.1-0.6,2.2C87.8,254.3,87.8,254.3,87.7,254.3z M82.8,239.6c0.9,0,1.9,0.5,2.5,2.5
					c0.8,2.3,1.1,4.4,1.4,6.1c0.1,0.8,0.2,1.5,0.4,2.1c0.1,0.6,0.3,1.1,0.4,1.6c0-0.5,0-1,0-1.5c-0.1-3.9-0.1-9.2-2.7-12.2
					c-1.5-1.7-4.9-2.2-6.5-2.4l2.7,4.2c0.2,0,0.4-0.1,0.6-0.1C81.9,239.7,82.4,239.6,82.8,239.6z"/>
			</g>
			<g>
				<circle class="st1" cx="71.1" cy="238.4" r="2.2"/>
				<path class="st1" d="M71.1,241c-1.4,0-2.6-1.2-2.6-2.6c0-1.4,1.2-2.6,2.6-2.6s2.6,1.2,2.6,2.6C73.7,239.9,72.6,241,71.1,241z
					 M71.1,236.7c-0.9,0-1.7,0.8-1.7,1.7c0,0.9,0.8,1.7,1.7,1.7s1.7-0.8,1.7-1.7C72.8,237.5,72.1,236.7,71.1,236.7z"/>
			</g>
			<g>
				<path class="st1" d="M71.1,239.2c-2.3-0.1-13.9-0.9-14.5-5.4c-0.1-0.8,0.1-1.6,0.6-2.3c2.2-2.8,9.6-3.4,10.5-3.4l0.1,1.7
					c-2.1,0.1-7.8,0.9-9.3,2.8c-0.3,0.3-0.4,0.6-0.3,1c0.4,2.3,7.8,3.7,13,4L71.1,239.2z"/>
			</g>
		</g>
	</g>
	<g>
		<g>
			<g>
				
					<ellipse transform="matrix(0.9871 -0.1602 0.1602 0.9871 -49.6453 92.3302)" class="st25" cx="547.9" cy="354.1" rx="37.4" ry="37.4"/>
				<path class="st26" d="M569.9,357.1c-0.5-0.6-1.4-0.5-2.4-0.5c-19.7,0-19.7,0-39.3,0c-1,0-1.9-0.1-2.4,0.5
					c-4.9,6.2,0.9,24.4,22,24.4C569.1,381.5,574.8,363.3,569.9,357.1z"/>
				<path class="st27" d="M550.2,366.2c-0.7,0-1.8,0.7-1.4,2.4c0.2,0.9,1.5,2,1.5,3.4c0,3-4.7,3-4.7,0c0-1.5,1.3-2.5,1.5-3.4
					c0.4-1.8-0.7-2.5-1.4-2.4c-2,0.1-5.2,2.2-5.2,5.7c0,4,3.3,7.3,7.5,7.3c4.1,0,7.5-3.3,7.5-7.3
					C555.3,368.4,552.1,366.3,550.2,366.2z"/>
				<path class="st28" d="M538.3,377.3c2.8,1.2,6,1.9,9.6,1.9c3.6,0,6.8-0.7,9.6-1.9c-2.7-1.3-5.9-2.1-9.6-2.1
					C544.1,375.3,540.9,376.1,538.3,377.3z"/>
				<path class="st1" d="M566.5,359.1c-18.6,0-18.6,0-37.3,0c-2.6,0-2.6,5-0.1,5c13,0,24.4,0,37.4,0
					C569.1,364.1,569.1,359.1,566.5,359.1z"/>
				<path class="st29" d="M582,360.2c9.1,9.6-3.3,22.6-12.4,13c-6.6-7-6.9-20.3-6.9-20.3S575.4,353.2,582,360.2z"/>
				<path class="st29" d="M526,373.2c-9.1,9.6-21.5-3.4-12.4-13c6.6-7,19.3-7.3,19.3-7.3S532.7,366.2,526,373.2z"/>
				<path class="st26" d="M543.5,349.9c-2.3-6.4-5.8-9.6-9.3-9.6s-7,3.2-9.3,9.6c-0.2,0.6,1,1.8,1.6,1.2c2.2-2.4,4.9-3.3,7.7-3.3
					c2.8,0,5.5,0.9,7.7,3.3C542.6,351.7,543.8,350.6,543.5,349.9z"/>
				<path class="st26" d="M570.8,349.9c-2.3-6.4-5.8-9.6-9.3-9.6s-7,3.2-9.3,9.6c-0.2,0.6,1,1.8,1.6,1.2c2.2-2.4,4.9-3.3,7.7-3.3
					s5.5,0.9,7.7,3.3C569.8,351.7,571,350.6,570.8,349.9z"/>
			</g>
		</g>
	</g>
	<g>
		<g>
			<g>
				<path class="st22" d="M220,242.8c0,0-3.8,3.5-10.1,7.6c-1.7-10.1-6.5-22.5-16-37.7c0,0-3.1,16.3-13.4,31.7
					c-4.5-7-6.4-12.4-6.4-12.4c-32.5,32.5-5.6,55.5,11.4,55.5C207.1,287.5,226.2,277.1,220,242.8z"/>
				<path class="st23" d="M207.2,271.8c1.9-4.1,3.2-9.4,3.5-16.2c0,0-2.6,2.3-7.1,5c-1.2-6.7-4.6-15-11.2-25.1
					c0,0-2.2,10.9-9.4,21.1c-3.2-4.6-4.5-8.3-4.5-8.3c-5.4,8.5-7.5,15.2-7.6,20.5c-3-1.1-4.8-2-4.8-2c5.1,15.2,15.7,18.5,20.4,18.5
					c8.5,0,17.1-2.5,25.6-14.6C212,270.8,210.2,271.3,207.2,271.8z"/>
				<path class="st24" d="M176.3,264.9c0,0,3.5,4.8,6.1,3.6c0,0,5-7.8,12.3-12.2c0,0-1.5,12,0.2,14.1c2.3,2.8,8.4-3.1,8.4-3.1
					c0,7.1-7.7,16-14.7,16C181.8,283.2,172.1,275.5,176.3,264.9z"/>
				<path class="st22" d="M211,232.8c2.6-3.8,4.4-7.7,4.4-7.7c4.4,7.2,1.8,11.6-0.1,13C212.7,240.1,208,237.2,211,232.8z"/>
				<path class="st22" d="M163.4,231.6c-2.6-4.4-2.8-9.9-2.8-9.9c-6.2,9.4-3.8,14.5-1.7,16.1C161.6,239.9,166.4,236.6,163.4,231.6z"
					/>
				<path class="st22" d="M177.9,221.8c0.3-3-0.9-6-0.9-6c5.9,3.8,5.8,7.1,5.1,8.4C181,226,177.6,225.2,177.9,221.8z"/>
			</g>
		</g>
	</g>
	<g>
		<g>
			<g>
				<polygon class="st30" points="271.5,180.2 282.1,176.5 274.1,172.7 				"/>
				<polygon class="st31" points="302.6,149.6 287.4,134.3 285,141.4 				"/>
				<polygon class="st30" points="285,141.4 282.3,149.2 315.7,164.8 317.2,164.3 302.6,149.6 				"/>
				<polygon class="st31" points="279.5,157.1 304.5,168.7 315.7,164.8 282.3,149.2 				"/>
				<polygon class="st30" points="276.8,164.9 293.3,172.6 304.5,168.7 279.5,157.1 				"/>
				<polygon class="st31" points="276.8,164.9 274.1,172.7 282.1,176.5 293.3,172.6 				"/>
				<path class="st32" d="M308.7,143.1c8.4,8.3,12.7,17.4,9.7,20.4c-3.1,3-12.3-1.3-20.7-9.5c-8.4-8.3-12.7-17.4-9.7-20.4
					C291,130.6,300.3,134.8,308.7,143.1z"/>
				<path class="st33" d="M298.3,122.3c-2-2.8,0.2-4.1,2.9-3.6c-2.6-3.2-1-5.4,3.1-4.5c1.3,0.3-0.5,2.4-1.6,2.3
					c3.4,2.6,1.5,5.2-2.1,4.6c3.2,4.4-2.3,3.3-4.7,3.5c-0.6,3.3,3.1,7,1.9,7C294.9,131.6,290.5,121.3,298.3,122.3z"/>
				<path class="st34" d="M324.5,128.3c-1.8,0.8-7.1-7.4-0.7-7.5c-3.7-3.4-3.2-5,1.7-5.1c-5.7-5.7,3.3-7.8,4.3-4.7
					c0.3,0.9-2.8-0.8-3.7,0.8c-1.1,1.9,7,6.7-1.4,6.4c3.1,3.2,3.3,4.6-1.7,5.2C323.7,124.3,325.7,127.8,324.5,128.3z"/>
				<path class="st35" d="M326.6,147.8l1.9-1.6c0,0,1.8,2.6,3,3.6c1-4.4,0.7-7.1,5.9-4.1c-2.9-7.7,1.9-4.8,6.4-2.7
					c-0.3-2,0-1.8,2-2.3c1.7,6.6-3,4.7-6.8,2.5c2.2,5.9-0.1,5.6-4.9,3.6c-0.1,2.5-0.9,5.4-2.4,5.6
					C330.1,152.6,326.6,147.8,326.6,147.8z"/>
				<path class="st36" d="M312.6,129.2c-2.3,3-5.8,4.7-8.5,7.3c-2.8,2.7-4.4,10.2-4.4,10.2s1-7.8,3.6-10.8c2.4-2.7,5.8-4.7,7.7-7.9
					c3.3-5.7,0.4-13.2-3.9-17.6c0.9-0.8,2.1-1.8,2.8-2.5C313.9,113.1,317.5,122.9,312.6,129.2z"/>
				<path class="st34" d="M316.4,135.6c-3.3,2.4-5.6,5.8-7.9,9.1c-2,2.9-8.4,6.4-8.4,6.4s6-4.1,7.8-7.1c2.2-3.7,4.4-7.6,7.9-10.3
					c7-5.4,17-4.8,24.9-2c-0.4,1.1-1.4,3.5-1.4,3.5S323.1,130.8,316.4,135.6z"/>
				<path class="st33" d="M330.3,135c-2.1,2.8-3.2,6.1-4.8,9.2c-1.5,2.8-3.5,5.6-6.4,7.1c-3.2,1.6-10.4,1.1-10.4,1.1
					s7.2-0.1,10.1-2.1c3-2,4.6-5.4,5.8-8.7c2.2-6.2,5-12.9,11.5-15.7c0.4,1.2,1.3,3.5,1.3,3.5S333.8,130.4,330.3,135z"/>
				<rect x="274" y="119.5" transform="matrix(0.707 -0.7072 0.7072 0.707 -5.257 231.3157)" class="st33" width="5" height="5"/>
				<rect x="279" y="130.6" transform="matrix(0.7071 -0.7071 0.7071 0.7071 -11.7 238.0105)" class="st34" width="5" height="5"/>
				<rect x="288" y="114" transform="matrix(0.707 -0.7072 0.7072 0.707 2.7303 239.5369)" class="st35" width="5" height="5"/>
				
					<rect x="326.3" y="156.1" transform="matrix(0.7071 -0.7071 0.7071 0.7071 -15.8516 278.9654)" class="st36" width="5" height="5"/>
				
					<rect x="318.5" y="168.2" transform="matrix(0.7071 -0.7071 0.7071 0.7071 -26.6972 276.949)" class="st35" width="5" height="5"/>
				
					<rect x="333.9" y="171" transform="matrix(0.7071 -0.7071 0.7071 0.7071 -24.1433 288.687)" class="st34" width="5" height="5"/>
				
					<rect x="337.4" y="154.9" transform="matrix(0.7071 -0.7071 0.7071 0.7071 -11.7574 286.4835)" class="st33" width="5" height="5"/>
				
					<rect x="331.6" y="117.7" transform="matrix(0.7071 -0.7071 0.7071 0.7071 12.8394 271.4225)" class="st33" width="5" height="5"/>
				
					<rect x="293.8" y="138.9" transform="matrix(0.7071 -0.7071 0.7071 0.7071 -13.2063 250.8968)" class="st35" width="5" height="5"/>
			</g>
		</g>
	</g>
	<g>
		<g>
			<g>
				<path class="st37" d="M465.1,233.9c-8-21.1-33.8-11.6-36.2-1.1c-3.3-11.2-28.5-19.6-36.2,1.1c-8.6,23,33.2,43.7,36.2,47.1
					C431.8,278.3,473.7,256.5,465.1,233.9z"/>
			</g>
		</g>
	</g>
	<g>
		<g>
			<g>
				<path class="st25" d="M346.2,563.1c0,20.6-16.7,37.4-37.4,37.4c-20.6,0-37.4-16.7-37.4-37.4c0-20.6,16.7-37.4,37.4-37.4
					C329.5,525.7,346.2,542.5,346.2,563.1z"/>
				<path class="st38" d="M346,539.7c-0.6-3.3-2.5-6.1-5.6-6.9c-3.3-0.9-6.3,0.4-9.3,3.4c-1.6-4.5-4.2-7.9-8.1-9.6
					c-4.1-1.8-8-0.6-10.5,2.6c-2.6,3.3-3.6,8.3-0.8,14.9c2.6,6.2,14.2,18.7,14.6,19.1c0.5-0.3,13.4-8.4,16.6-12.3
					C346,546.9,346.6,543,346,539.7z"/>
				<path class="st38" d="M305.1,529.1c-2.5-3.1-6.4-4.3-10.5-2.6c-4,1.7-6.5,5.1-8.1,9.6c-2.9-3-6-4.3-9.3-3.4
					c-3,0.8-5,3.6-5.6,6.9c-0.6,3.3,0.1,7.2,3.2,11.1c3.2,4,16.1,12.1,16.6,12.3c0.3-0.4,12-12.9,14.6-19.1
					C308.7,537.4,307.7,532.4,305.1,529.1z"/>
				<path class="st26" d="M330,570.6c0-1-0.6-2.3-2.3-2.6c-4.3-0.8-10.7-1.7-18.9-1.7h0c-8.2,0-14.6,0.8-18.9,1.7
					c-1.7,0.3-2.3,1.6-2.3,2.6c0,9.1,7,18.2,21.2,18.2h0C323.1,588.8,330,579.7,330,570.6z"/>
				<path class="st1" d="M324.7,570.9c-2.7-0.5-8.5-1.3-15.8-1.3c-7.3,0-13.1,0.8-15.8,1.3c-1.6,0.3-1.7,0.9-1.6,1.9
					c0.1,0.6,0.2,1.2,0.3,1.9c0.2,0.8,0.3,1.2,1.6,1c2.4-0.3,28.6-0.3,31,0c1.3,0.1,1.4-0.2,1.6-1c0.2-0.7,0.3-1.4,0.3-1.9
					C326.4,571.8,326.3,571.2,324.7,570.9z"/>
			</g>
		</g>
	</g>
	<g>
		<g>
			<g>
				<path class="st25" d="M272.7,780.8c-1.2-8.5,4.1-22.1,6.5-40.4c0.4-3.3,17.5-6.7,25.4-6.7c2.1,0,3.8,9.3,3.3,12.5
					c-0.4,2.4-3.7,1.7-3.7,1.7c-1.1,3.1-4.4,1.9-4.4,1.9c-1,2.7-4,1.4-4,1.4c-1.2,2.5-4,1.3-4,1.3c-2.5,10.8,2.1,9.8,5.5,26.2
					c0,0,0.9-0.2,3.6-5.5c10.7-21.6,48.3-14.7,46.1,8.4c-0.5,5.2,4.9,13.6-15.3,19.9c-16.1,5-35.8-4.6-35.8-4.6
					c-6.7,2.1-19.8,1.9-20.2-3C275.2,788.1,273.2,785.2,272.7,780.8z"/>
				<path class="st39" d="M346.9,781.6c0.5-5.5-1.1-9.9-4.1-13.3c1.8,3,2.7,6.6,2.3,10.8c-0.5,5.2,4.9,13.6-15.3,19.9
					c-16.1,5-35.8-4.6-35.8-4.6c-5.3,1.6-14.5,1.9-18.3-0.4c0.5,4.8,13.5,4.9,20.1,2.9c0,0,19.7,9.6,35.8,4.6
					C351.9,795.2,346.4,786.8,346.9,781.6z"/>
				<path class="st39" d="M290.3,752.4c-3.1,12.7,1.9,12.2,5.3,28.3l1.8-1.9c-2.5-16.1-6.8-14.2-5.7-26.2
					C290.9,752.6,290.3,752.4,290.3,752.4z"/>
				<path class="st39" d="M306.4,788.6c10.4,3.9,25.9-0.1,34.8-4.2C337.2,793.7,316.7,798.7,306.4,788.6z"/>
				<path class="st39" d="M301.3,737.2c-0.7-1.4-2.2-1.3-3.2-0.8C298.2,734.9,301.8,733.8,301.3,737.2z"/>
				<path class="st39" d="M308.8,742.5c-0.3-2.7-1.3-5.5-2.9-7.7c0.9,2.3,1.3,4.8,1.3,7.3c0,1.1,0.3,5.1-1.7,4.6
					c-1.2-0.3-1.3-1.4-1.6-2.4c-0.5-1.7-1.5-3.6-1.4-5.4c-0.5,1.8,0.1,3.9,0.3,5.6c0.1,1,0.9,3.8-0.5,4.2c-0.8,0.2-1.6-0.3-2.2-0.6
					c-0.2-0.1-0.4-1.2-0.5-1.4c-0.5-1.7-1.5-3.7-1.4-5.6c-0.5,1.7,0,3.6,0.1,5.3c0.1,1,0.7,3.3-0.6,3.8c-1.4,0.7-1.7-1-1.9-1.9
					c-0.5-1.7-1.3-3.5-1.3-5.2c-0.5,2.1,0.1,4.6,0.2,6.7c0,1.1-2.4,2-3.3,1.4c-1.4-1.1-1.7-3.5-1.8-5.1c0.4,0.5,1,1.2,1.8,1.2
					c-0.7-0.7-0.9-1.9-1.4-2.7c-0.4-0.7-1.2-2.3-2.2-2.4c0.1,0.3,1,2.3,0.8,2.6c-0.4,0.7-0.8,1.4-1.2,2c-0.4,0.5-1.4,2.3-2.3,1.8
					c-0.9-0.6-1.2-2.1-1.5-3.1c0.1,1.2,0,3.1,1.2,3.9c1.1,0.7,2.4-0.4,3.2-1.2c0.3,2.5,1.3,5.9,4.5,5.6c0.7,0,1.3-0.3,1.9-0.5
					c0.5-0.2,1.1-0.8,1.6-0.7c1.3,0.4,2.8,0.1,3.7-0.9c0.4-0.5,0.3-0.8,1-0.6c0.7,0.2,1.4,0.2,2.1,0c0.6-0.2,1.1-0.5,1.5-1
					c0.2-0.3,0.4-0.5,0.5-0.8c0.2-0.5,0.5-0.2,1-0.3C309.2,748.9,309.1,744.9,308.8,742.5C308.5,739.8,308.9,743.2,308.8,742.5z"/>
				<path class="st39" d="M305.8,735.5c-0.7-1.4-2.2-1.3-3.2-0.8C302.7,733.2,306.4,732,305.8,735.5z"/>
				<path class="st39" d="M297.6,739c-0.7-1.4-2.2-1.3-3.2-0.8C294.5,736.8,298.2,735.6,297.6,739z"/>
				<path class="st39" d="M293.4,741c-0.7-1.4-2.2-1.3-3.2-0.8C290.3,738.7,294,737.6,293.4,741z"/>
			</g>
		</g>
	</g>
	<g>
		<g>
			<g>
				<path class="st40" d="M202.6,702.5c-0.3,0-0.6-0.1-0.8-0.2c-0.5-0.3-0.7-0.9-0.6-1.4c0-0.1,3.2-13.4-15.3-28.1
					c-0.6-0.5-0.7-1.3-0.2-1.9c0.5-0.6,1.4-0.6,2.1-0.2c14.7,11.7,16.6,22.6,16.6,27.7c11.8-7.6,18.5-15.5,19.8-23.4
					c1.2-7.3-2.8-11.9-3-12.1c-0.5-0.6-0.4-1.4,0.2-1.9c0.6-0.5,1.5-0.4,2,0.2c0.2,0.2,5,5.6,3.6,14.1c-1.5,9.2-9.4,18.3-23.6,26.9
					C203.1,702.4,202.9,702.5,202.6,702.5z"/>
				<path class="st40" d="M189.6,702.5c-0.3,0-0.7-0.1-0.9-0.3c-0.5-0.4-0.7-1.1-0.4-1.6c0.2-0.5,5.4-11.5-8.6-26.4
					c-0.5-0.6-0.5-1.4,0.1-1.9c0.6-0.5,1.5-0.4,2.1,0.1c10.5,11.1,11,20.4,10.2,25.4c23.8-16.9,21.5-31.1,21.5-31.3
					c-0.1-0.6,0.2-1.2,0.8-1.4c0.6-0.3,1.3-0.1,1.7,0.3c16,16.1,5,26,4.9,26.1c-0.6,0.5-1.5,0.5-2.1-0.1c-0.5-0.5-0.5-1.4,0.1-1.9
					c0.4-0.3,7.8-7.2-2.6-19.6c-0.7,6.1-5,18.5-26,32.3C190.2,702.4,189.9,702.5,189.6,702.5z"/>
				<path class="st40" d="M213.9,702.5c-0.1,0-0.3,0-0.4-0.1c-0.8-0.2-1.2-1-1-1.7c0.2-0.6,3.6-12.8-12.7-26.8
					c-1.3,4.3-5.3,13.8-16.9,23.1c-0.6,0.5-1.5,0.4-2.1-0.1c-0.5-0.6-0.5-1.4,0.2-1.9c14.4-11.5,16.4-23.6,16.5-23.7
					c0.1-0.5,0.4-0.9,0.9-1.1c0.5-0.2,1.1-0.1,1.5,0.2c20,15.8,15.7,30.5,15.5,31.1C215.1,702.1,214.6,702.5,213.9,702.5z"/>
				<path class="st35" d="M216,654c-9.6,0-27.3,6.4-33.2,12.1c-1.2,1.1-3.2,4.2,5.2,4.2c10.5,0,26.4-6.5,31.3-12.3
					C221.1,655.9,221.9,654,216,654z M188.1,676.5c-15.8,0-13.9-7.7-11.7-10.6c5.8-7.9,28-15.8,39.7-15.8c13.5,0,11.3,7.4,8.5,11.2
					C218.1,669.9,199.7,676.5,188.1,676.5z"/>
				
					<ellipse transform="matrix(0.1602 -0.9871 0.9871 0.1602 -495.2205 723.2127)" class="st34" cx="177.4" cy="652.6" rx="24.9" ry="24.9"/>
				<path class="st41" d="M159.7,635.1c0.5,2.1,1.4,4,2.4,5.9c1,1.9,2.1,3.7,3.3,5.5c2.3,3.5,4.9,7,7.6,10.2
					c2.7,3.3,5.6,6.4,8.7,9.2c1.6,1.4,3.2,2.7,5,3.9c1.7,1.2,3.6,2.2,5.7,2.7c-2.2-0.1-4.2-1-6.2-1.9c-1.9-1-3.7-2.2-5.4-3.6
					c-3.4-2.7-6.4-5.8-9.2-9.1c-2.7-3.3-5.3-6.9-7.4-10.7c-1.1-1.9-2-3.8-2.8-5.8C160.5,639.4,159.8,637.3,159.7,635.1z"/>
				<path class="st41" d="M152.5,652c1.5,3.1,3.3,6,5.7,8.4c2.3,2.4,5.2,4.2,8.2,5.6c3,1.4,6.3,2.4,9.5,3.8c1.6,0.7,3.2,1.5,4.6,2.7
					c1.4,1.2,2.4,2.8,2.6,4.5c-0.6-1.6-1.8-2.9-3.2-3.8c-1.4-0.9-3-1.5-4.5-2c-3.2-1.1-6.6-2-9.8-3.4c-3.2-1.5-6.2-3.5-8.5-6.3
					C154.8,658.6,153.3,655.3,152.5,652z"/>
				<path class="st41" d="M197.4,667.4c-2,0.8-4.4,1.3-6.6,0.3c-2.2-1.1-3.5-3.2-4.3-5.3c-1.7-4.2-2.3-8.6-3.3-12.8
					c-0.9-4.2-1.9-8.5-3.8-12.3c-1.9-3.8-4.9-7-9.1-8.7c2.2,0.4,4.2,1.4,6,2.8c1.8,1.4,3.2,3.2,4.3,5.1c2.3,3.9,3.4,8.3,4.3,12.6
					l1.3,6.4c0.4,2.1,0.9,4.2,1.6,6.2c0.7,2,1.7,3.9,3.4,5C193,668,195.3,667.9,197.4,667.4z"/>
				<path class="st41" d="M191.8,632.3c1.1,0.8,2,1.9,2.7,3.1c0.7,1.2,1.2,2.5,1.7,3.8c0.8,2.6,1.3,5.4,1.4,8.2
					c0.2,5.5-1.1,11.3-4.2,16c-1.6,2.3-3.6,4.4-6,6c-2.4,1.6-5,2.7-7.7,3.4c-5.4,1.4-11,1.2-16.4,0.4c5.4,0.2,10.9-0.2,16-1.8
					c5.1-1.6,9.6-4.6,12.5-9c2.9-4.3,4.2-9.7,4.3-15c0-2.7-0.2-5.3-0.8-7.9C194.7,636.9,193.8,634.2,191.8,632.3z"/>
			</g>
		</g>
	</g>
	<g>
		<g>
			<g>
				<polygon class="st42" points="64.7,524.7 70.9,537.2 77.1,524.7 				"/>
				<polygon class="st42" points="86.9,526 86,539.9 97.7,532.2 				"/>
				<polygon class="st42" points="44.1,532.2 55.8,539.9 54.9,526 				"/>
				<path class="st39" d="M56.4,599.5H41.7v-16l17.2,3.9C54.8,591.7,56.4,599.5,56.4,599.5z"/>
				<path class="st25" d="M55,599.5H38.6c0,0,0.2-8-2.5-14.8l20.5,2.9C54.3,593.7,55,599.5,55,599.5z"/>
				<path class="st25" d="M53.5,577.6h6.2v-27.7c0-1.9-1.4-3.4-3.1-3.4h0c-1.7,0-3.1,1.5-3.1,3.5L53.5,577.6L53.5,577.6z"/>
				<path class="st25" d="M46.1,577.6h7.4v-30.1c0-2.3-1.6-4.1-3.7-4.1c-2,0-3.7,1.8-3.7,4.1V577.6z"/>
				<path class="st25" d="M39.7,577.6h6.4v-28.3c0-2-1.4-3.6-3.2-3.6h0c-1.8,0-3.2,1.6-3.2,3.6V577.6z"/>
				<path class="st25" d="M36.8,549.9c-1.6,0-2.9,1.5-2.9,3.3v24.3h5.9v-24.3C39.7,551.4,38.4,549.9,36.8,549.9z"/>
				<path class="st39" d="M56.6,546.4L56.6,546.4c-0.2,0-0.4,0-0.6,0.1c1.5,0.3,2.6,1.7,2.6,3.3v27.7h1.1v-27.7
					C59.7,548,58.3,546.4,56.6,546.4z"/>
				<path class="st39" d="M49.8,543.4c-0.2,0-0.4,0-0.6,0.1c1.8,0.3,3.1,2,3.1,4v20.1l1.1,1.2v-21.3
					C53.5,545.2,51.8,543.4,49.8,543.4z"/>
				<path class="st39" d="M42.9,545.7L42.9,545.7c-0.2,0-0.4,0-0.6,0.1c1.5,0.3,2.7,1.7,2.7,3.5v18.3l1.1,1.2v-19.6
					C46.1,547.3,44.7,545.7,42.9,545.7z"/>
				<path class="st39" d="M36.8,549.9c-0.2,0-0.4,0-0.6,0.1c1.4,0.3,2.4,1.6,2.4,3.3v14.3l1.1,1.2v-15.6
					C39.7,551.4,38.4,549.9,36.8,549.9z"/>
				<path class="st25" d="M70.1,564.9c-1.9-2.2-5.6-1.1-8.2,4.3c-1.8,3.8-2.3,3-3.3,3.2V569c0,0-24.8-1.6-24.8,2.2
					c0,0-1.2,9.2,1.2,14.9c3.6,8.6,22,10.9,27.8-3.8c1.2-2.9,2.7-6,4-9.1C68.4,569.6,72.2,567.3,70.1,564.9z"/>
				<path class="st39" d="M68.9,564c4,3-3.4,8.7-6.8,17.6c-5,12.7-19.5,12.7-25.7,6.8c5.6,6.6,21.2,7.9,26.4-6
					C66.2,573.4,74.7,566.6,68.9,564z"/>
				<path class="st39" d="M59.7,572.3c-4.9-1.7-15,1.6-13.7,11.3c0-9.1,8.1-11.2,12.6-11.2C59.1,572.4,59.7,572.3,59.7,572.3z"/>
				<path class="st39" d="M85.4,599.5H100v-16l-17.2,3.9C86.9,591.7,85.4,599.5,85.4,599.5z"/>
				<path class="st25" d="M86.7,599.5h16.4c0,0-0.2-8,2.5-14.8l-20.5,2.9C87.4,593.7,86.7,599.5,86.7,599.5z"/>
				<path class="st25" d="M88.3,577.6H82v-27.7c0-1.9,1.4-3.4,3.1-3.4h0c1.7,0,3.1,1.5,3.1,3.5V577.6z"/>
				<path class="st25" d="M95.6,577.6h-7.4v-30.1c0-2.3,1.6-4.1,3.7-4.1s3.7,1.8,3.7,4.1V577.6z"/>
				<path class="st25" d="M102,577.6h-6.4v-28.3c0-2,1.4-3.6,3.2-3.6h0c1.8,0,3.2,1.6,3.2,3.6V577.6z"/>
				<path class="st25" d="M105,549.9c1.6,0,2.9,1.5,2.9,3.3v24.3H102v-24.3C102,551.4,103.3,549.9,105,549.9z"/>
				<path class="st39" d="M85.1,546.4L85.1,546.4c0.2,0,0.4,0,0.6,0.1c-1.5,0.3-2.6,1.7-2.6,3.3v27.7H82v-27.7
					C82,548,83.4,546.4,85.1,546.4z"/>
				<path class="st39" d="M91.9,543.4c0.2,0,0.4,0,0.6,0.1c-1.8,0.3-3.1,2-3.1,4v20.1l-1.1,1.2v-21.3
					C88.3,545.2,89.9,543.4,91.9,543.4z"/>
				<path class="st39" d="M98.8,545.7L98.8,545.7c0.2,0,0.4,0,0.6,0.1c-1.5,0.3-2.7,1.7-2.7,3.5v18.3l-1.1,1.2v-19.6
					C95.6,547.3,97.1,545.7,98.8,545.7z"/>
				<path class="st39" d="M105,549.9c0.2,0,0.4,0,0.6,0.1c-1.4,0.3-2.4,1.6-2.4,3.3v14.3l-1.1,1.2v-15.6
					C102,551.4,103.3,549.9,105,549.9z"/>
				<path class="st25" d="M71.6,564.9c1.9-2.2,5.6-1.1,8.2,4.3c1.8,3.8,2.3,3,3.3,3.2V569c0,0,24.8-1.6,24.8,2.2
					c0,0,1.2,9.2-1.2,14.9c-3.6,8.6-22,10.9-27.8-3.8c-1.2-2.9-2.7-6-4-9.1C73.4,569.6,69.5,567.3,71.6,564.9z"/>
				<path class="st39" d="M72.8,564c-4,3,3.4,8.7,6.8,17.6c5,12.7,19.5,12.7,25.7,6.8c-5.6,6.6-21.2,7.9-26.4-6
					C75.5,573.4,67.1,566.6,72.8,564z"/>
				<path class="st39" d="M82,572.3c4.9-1.7,15,1.6,13.7,11.3c0-9.1-8.1-11.2-12.6-11.2C82.6,572.4,82,572.3,82,572.3z"/>
			</g>
		</g>
	</g>
	<g>
		<g>
			<g>
				<path class="st25" d="M582.1,645.5c-0.1-3.3-2.8-7.7-8.1-8.6c-4.4-0.7-8.8,0.7-9.9,4.5c-0.6-4.9-4.8-6.5-10.1-6.4
					c-5.1,0.1-9.3,2.5-9.8,7.1c-1.3-2.8-4.6-3.7-8.5-3.6l-0.2,0c-3.8,0.1-7.1,1.4-8.3,4.3c-1.1-0.6-2.8-0.7-5.2,0.1
					c-3,1-8.3,5.5-10.5,14.8c-1.7,7.1,0.6,17.1,0.6,17.1c-0.2,4.4,3.2,8.2,7.6,8.4c3.4,0.2,6.4-1.6,7.8-4.3l0,1.4
					c0.1,5,4.3,8.9,9.2,8.8l0.2,0c3.9-0.1,7.2-2.7,8.4-6.3c0.8,4.8,5.1,8.4,10.1,8.3c5.5-0.1,9.9-4.7,9.8-10.2
					c0.7,4.5,4.7,7.9,9.4,7.8l0.2,0c5.2-0.1,10.6-5.1,10.5-10.3C585.2,678.6,582.4,663.9,582.1,645.5z"/>
				<path class="st39" d="M585,680.4c-1.7,2-4.2,3.4-7,3.5l-0.2,0c-0.5,0-1,0-1.5-0.1c-0.2,0-0.5-0.1-0.8-0.1
					c-3.2-0.5-6.8-2.1-8.9-4.5c0.4-2.9,0.5-5.7,0.5-8.5c0-3.1-0.2-6.1-0.4-9.1c-0.1-3-0.2-6-0.1-9.1c-0.6,1.4-1.1,2.9-1.4,4.4
					c-0.3,1.5-0.5,3.1-0.7,4.6c-0.3,3.1-0.3,6.2-0.2,9.2c0.1,3,0.2,6,0.1,9c-0.1,1.5-0.1,3.7-0.6,4.7c-1,2.1-4,2.6-6.5,2.6
					c-4.4,0.1-9-2.5-10.9-6.3c0,0,0-0.1,0-0.1c0.2-1.3,0.3-2.7,0.5-4c0.3-2.7,0.5-5.4,0.5-8.1c0-2.7-0.2-5.4-0.5-8.1
					c-0.2-1.3-0.4-2.7-0.7-4c-0.3-1.3-0.7-2.6-1.2-3.9c-0.1,1.4-0.1,2.7-0.2,4.1c0,1.3-0.1,2.7-0.1,4c0,2.7-0.1,5.3-0.1,8
					c0,2.7,0,5.3,0.1,8c0.1,1.1,0.1,4.4,0.2,5.8c-1.6,1.6-3.7,2.6-6.2,2.7l-0.2,0c-4.1,0.1-8.4-3.2-9.7-7.2c0-0.1,0-0.2,0-0.4
					c0.2-2.3,0.3-4.6,0.4-7c0.1-2.3,0.1-4.7,0-7.1c-0.1-1.2-0.2-2.4-0.5-3.6c-0.1-0.6-0.3-1.2-0.5-1.8c-0.1-0.3-0.2-0.6-0.4-0.9
					c-0.2-0.3-0.3-0.5-0.6-0.7c0.1,0.3,0.1,0.6,0.2,0.9c0,0.3,0,0.6,0,0.9c0,0.6-0.1,1.2-0.1,1.7c-0.1,1.2-0.2,2.3-0.4,3.5
					c-0.3,2.3-0.5,4.7-0.6,7c-0.1,2.4-0.1,4.7,0.2,7.1c0,0.1,0,0.1,0,0.2c-1.4,1-3.2,1.4-5.2,1.4c-12.6,0-9.9-18.4-8.2-25.5
					c0.3-1.2,0.6-2.3,1-3.2c-1.1,1.8-2.2,4.2-2.9,7.3c-1.7,7.1-2.5,25.5,8.2,25.5c3.1,0,5.9-1.3,7.4-3.7c0.1,0.5,0.4,9.6,9.6,9.6
					l0.2,0c2.9-0.1,5.4-1.5,7-3.6c-0.2,0.7-0.3,1.5-0.4,2.6c-0.6,6.8,4.7,10.1,8,8.9c8.9-3.2,16.4-3.6,22.3-3.4
					c4,0.2,6.6-2.6,7.2-7.2C583.1,684.8,584.6,682.6,585,680.4z"/>
			</g>
		</g>
	</g>
	<g>
		<g>
			<g>
				<path class="st43" d="M33.5,354.4c0,11,4.7,26.9,18.7,26.9c14,0,18.7-15.9,18.7-26.9C70.9,320.5,33.5,320.5,33.5,354.4z"/>
				<path class="st43" d="M70.9,354.4c0,11,4.7,26.9,18.7,26.9c14,0,18.7-15.9,18.7-26.9C108.2,320.5,70.9,320.5,70.9,354.4z"/>
				<path class="st1" d="M34.5,355.2c0,9.4,3,24.1,14.9,24.1c11.9,0,14.9-14.7,14.9-24.1C64.3,322.8,34.5,322.8,34.5,355.2z"/>
				<path class="st1" d="M71.9,355.2c0,9.4,3,24.1,14.9,24.1c11.9,0,14.9-14.7,14.9-24.1C101.7,322.8,71.9,322.8,71.9,355.2z"/>
				<path class="st44" d="M34.5,355.4c0,7.7,5.4,13.7,12.1,13.7c6.7,0,12.1-5.9,12.1-13.7C58.7,336.4,34.5,336.4,34.5,355.4z"/>
				<path class="st44" d="M71.9,355.4c0,7.7,5.4,13.7,12.1,13.7c6.7,0,12.1-5.9,12.1-13.7C96.1,336.4,71.9,336.4,71.9,355.4z"/>
			</g>
		</g>
	</g>
	<g>
		<g>
			<g>
				<polygon class="st45" points="445.7,46.3 469.7,33 442.8,34.2 450.8,17.6 436.2,28 438,5.2 427.3,24 411.3,2.2 418.2,29.4 
					394.2,21.4 413.3,38.9 390,43.4 412.4,48.5 399.8,70.9 420.3,58.5 421.2,82 429.6,60.5 440.9,77.5 440.3,57.1 459.8,64.6 				
					"/>
				<polygon class="st23" points="438.7,44.3 452.8,37.8 437.2,37.3 441.4,28 433.1,32.8 433.4,20.2 427.8,30.7 419.5,19.9 
					423.1,33.5 409.2,30 420.6,39.8 406.4,43.1 419.4,46.1 410.3,60.1 424.3,50.6 424.6,62.9 429.7,51.7 435.3,60.1 435.2,49.9 
					445.5,54.4 				"/>
				<polygon class="st1" points="433.5,42.7 439.4,39.9 432.8,39.7 434.6,35.8 431.1,37.8 431.2,32.4 428.9,36.9 425.3,32.3 
					426.9,38.1 421,36.6 425.8,40.7 419.8,42.1 425.3,43.4 421.4,49.3 427.3,45.3 427.5,50.5 429.6,45.8 432,49.3 432,45 
					436.3,46.9 				"/>
			</g>
		</g>
	</g>
	<g>
		<g>
			<g>
				<path class="st25" d="M109.2,42.1c0,20.6-16.7,37.4-37.4,37.4c-20.6,0-37.4-16.7-37.4-37.4c0-20.6,16.7-37.4,37.4-37.4
					C92.5,4.7,109.2,21.5,109.2,42.1z"/>
				<path class="st38" d="M109,18.7c-0.6-3.3-2.5-6.1-5.6-6.9c-3.3-0.9-6.3,0.4-9.3,3.4c-1.6-4.5-4.2-7.9-8.1-9.6
					C82,3.8,78.1,5,75.6,8.1C73,11.4,72,16.4,74.8,23c2.6,6.2,14.2,18.7,14.6,19.1c0.5-0.3,13.4-8.4,16.6-12.3
					C109,25.9,109.6,22,109,18.7z"/>
				<path class="st38" d="M68.1,8.1C65.6,5,61.7,3.8,57.6,5.5c-4,1.7-6.5,5.1-8.1,9.6c-2.9-3-6-4.3-9.3-3.4c-3,0.8-5,3.6-5.6,6.9
					c-0.6,3.3,0.1,7.2,3.2,11.1c3.2,4,16.1,12.1,16.6,12.3c0.3-0.4,12-12.9,14.6-19.1C71.7,16.4,70.7,11.4,68.1,8.1z"/>
				<path class="st26" d="M93,49.6c0-1-0.6-2.3-2.3-2.6c-4.3-0.8-10.7-1.7-18.9-1.7h0c-8.2,0-14.6,0.8-18.9,1.7
					c-1.7,0.3-2.3,1.6-2.3,2.6c0,9.1,7,18.2,21.2,18.2h0C86.1,67.8,93,58.7,93,49.6z"/>
				<path class="st1" d="M87.7,49.9c-2.7-0.5-8.5-1.3-15.8-1.3c-7.3,0-13.1,0.8-15.8,1.3c-1.6,0.3-1.7,0.9-1.6,1.9
					c0.1,0.6,0.2,1.2,0.3,1.9c0.2,0.8,0.3,1.2,1.6,1c2.4-0.3,28.6-0.3,31,0c1.3,0.1,1.4-0.2,1.6-1c0.2-0.7,0.3-1.4,0.3-1.9
					C89.4,50.8,89.3,50.2,87.7,49.9z"/>
			</g>
		</g>
	</g>
	<g>
		<g>
			<g>
				<path class="st46" d="M45.8,144.7c-0.7,0-1.3-0.1-1.9-0.5c-1.6-0.8-3.6-3.1-3.6-9.1c0-12.6-6.6-19.7-6.7-19.8l-1.1-1.2l5.9-6.5
					l1,1.5c0.1,0.2,3.2,4.7,8.1,3.3l0.7,3.2c-4.9,1.3-8.4-1.4-10.1-3.2l-1.5,1.7c2.1,2.8,6.6,10,6.6,21c0,3.3,0.7,5.5,1.8,6.1
					c0.9,0.4,2.2,0,3.4-1.3c3.2-3.2,5.6-11.2,5.6-11.3l2.8,1c-0.1,0.4-2.6,8.9-6.5,12.7C49,144,47.3,144.7,45.8,144.7z"/>
				<path class="st46" d="M93.9,144.7c0.7,0,1.3-0.1,1.9-0.5c1.6-0.8,3.6-3.1,3.6-9.1c0-12.6,6.6-19.7,6.7-19.8l1.1-1.2l-5.9-6.5
					l-1,1.5c-0.1,0.2-3.2,4.7-8.1,3.3l-0.7,3.2c4.9,1.3,8.4-1.4,10.1-3.2l1.5,1.7c-2.1,2.8-6.6,10-6.6,21c0,3.3-0.7,5.5-1.8,6.1
					c-0.9,0.4-2.2,0-3.4-1.3c-3.2-3.2-5.6-11.2-5.6-11.3l-2.8,1c0.1,0.4,2.6,8.9,6.5,12.7C90.7,144,92.4,144.7,93.9,144.7z"/>
				<rect x="66.1" y="136.3" class="st46" width="7.6" height="30.5"/>
				<rect x="67.6" y="136.3" class="st23" width="4.5" height="30.5"/>
				<path class="st46" d="M44.7,107.7c2.1,19.2,12.6,34.5,25.1,34.5s23-15.4,25.1-34.5H44.7z"/>
				<path class="st23" d="M49.6,107.7c1.7,19.4,10.2,34.9,20.3,34.9c10.1,0,18.6-15.5,20.3-34.9H49.6z"/>
				<path class="st46" d="M89.4,172.5h-39c0,0,8.7-11.3,19.5-11.3C80.6,161.2,89.4,172.5,89.4,172.5z"/>
				<path class="st23" d="M84.7,172.5H55.1c0,0,6.6-11.4,14.8-11.4C78,161.1,84.7,172.5,84.7,172.5z"/>
				<rect x="44.7" y="175" class="st47" width="50.3" height="7.5"/>
				<rect x="50.4" y="172.5" class="st48" width="39" height="2.5"/>
				<rect x="57.4" y="176.9" class="st46" width="24.9" height="3.7"/>
				<rect x="44.7" y="175" class="st49" width="2.5" height="7.5"/>
				<rect x="92.5" y="175" class="st48" width="2.5" height="7.5"/>
				<rect x="58.7" y="176.9" class="st23" width="22.4" height="3.7"/>
			</g>
		</g>
	</g>
</g>
<g id="Layer_3">
</g>
<g id="Layer_4">
</g>
</svg>
