<svg id="Layer_1" data-name="Layer 1" xmlns="http://www.w3.org/2000/svg" viewBox="0 0 960 960"><defs><style>.cls-1,.cls-2{fill:#fff;}.cls-2,.cls-3{stroke:#fff;stroke-miterlimit:10;}.cls-2{stroke-width:21px;}.cls-3{fill:none;stroke-width:38px;}</style></defs><title>SigningIcon</title><path class="cls-1" d="M437.49,211,564.85,338.36,697,470.51,393.57,773.94a19.89,19.89,0,0,1-28.12,0L134.06,542.56a19.91,19.91,0,0,1,0-28.13L437.49,211m0-55.15-331,331a58.88,58.88,0,0,0,0,83.28L337.87,801.51a58.88,58.88,0,0,0,83.28,0l331-331L592.43,310.78,437.49,155.85Z"/><path class="cls-2" d="M630.66,349S758.5,350.5,806.5,407.5c69.74,82.82,61,231,64,324,2.79,86.64-19,7-30-41-9.8-42.76-14-108-39-185-26-80.1-72-36-96-40Z"/><circle class="cls-2" cx="488.5" cy="420.5" r="49"/><path class="cls-3" d="M488.5,420.5S190,405,176,314,411,206,411,206"/></svg>